v 0.055831 0.585494 0.023420
v 0.051022 0.611616 0.023420
v 0.048618 0.624677 -0.000000
v 0.051022 0.611616 -0.023420
v 0.055831 0.585494 -0.023420
v 0.058235 0.572433 -0.000000
v -0.055831 0.585494 0.023420
v -0.051022 0.611616 0.023420
v -0.048618 0.624677 -0.000000
v -0.051022 0.611616 -0.023420
v -0.055831 0.585494 -0.023420
v -0.058235 0.572433 -0.000000
v -0.000000 0.522802 -0.213256
v 0.000000 0.376156 -0.346968
v 0.000000 0.279529 -0.386992
v 0.000000 0.175834 -0.400644
v -0.328510 0.319905 0.189665
v -0.379331 0.319905 -0.000000
v -0.324000 0.339547 0.187061
v -0.374123 0.339547 -0.000000
v 0.189665 0.319905 0.328510
v -0.000000 0.319905 0.379331
v 0.040903 0.566526 -0.070846
v 0.106628 0.522802 -0.184685
v 0.145751 0.459132 -0.252448
v 0.173484 0.376156 -0.300483
v 0.193496 0.279529 -0.335145
v 0.200322 0.175834 -0.346968
v 0.187061 0.339547 0.324000
v -0.000000 0.339547 0.374123
v 0.328510 0.319905 -0.189666
v 0.324000 0.339547 0.187061
v 0.324000 0.339547 -0.187062
v 0.070846 0.566526 -0.040903
v 0.184685 0.522802 -0.106628
v 0.252448 0.459132 -0.145751
v 0.300483 0.376156 -0.173484
v 0.335145 0.279529 -0.193496
v 0.346967 0.175834 -0.200322
v 0.328510 0.319905 0.189665
v -0.328510 0.319905 -0.189666
v -0.000000 -0.582504 -0.639908
v 0.319954 -0.582504 -0.554177
v 0.554177 -0.582504 -0.319954
v 0.081461 0.566526 -0.000000
v 0.213255 0.522802 -0.000000
v 0.291502 0.459132 -0.000000
v 0.346967 0.376156 -0.000000
v 0.386992 0.279529 -0.000000
v 0.400643 0.175834 -0.000000
v 0.639908 -0.582504 -0.000000
v 0.554177 -0.582504 0.319954
v 0.319954 -0.582504 0.554177
v -0.000000 -0.582504 0.639908
v -0.319954 -0.582504 0.554176
v 0.070846 0.566526 0.040903
v 0.184685 0.522802 0.106628
v 0.252448 0.459132 0.145751
v 0.300483 0.376156 0.173484
v 0.335145 0.279529 0.193496
v 0.346967 0.175834 0.200322
v -0.554177 -0.582504 0.319954
v -0.639908 -0.582504 -0.000000
v -0.554177 -0.582504 -0.319954
v -0.319954 -0.582504 -0.554177
v -0.285923 -0.500081 -0.495234
v 0.040903 0.566526 0.070846
v 0.106628 0.522802 0.184684
v 0.145751 0.459132 0.252448
v 0.173484 0.376156 0.300482
v 0.193496 0.279529 0.335145
v 0.200322 0.175834 0.346967
v -0.495233 -0.500081 -0.285923
v -0.571846 -0.500081 -0.000000
v -0.495233 -0.500081 0.285923
v -0.285923 -0.500081 0.495233
v -0.000000 -0.500081 0.571846
v 0.000000 0.566526 0.081806
v -0.000000 0.522802 0.213255
v -0.000000 0.459132 0.291502
v -0.000000 0.376156 0.346967
v -0.000000 0.279529 0.386992
v -0.000000 0.175834 0.400643
v 0.285923 -0.500081 0.495233
v 0.495233 -0.500081 0.285923
v 0.571846 -0.500081 -0.000000
v 0.495233 -0.500081 -0.285923
v 0.285923 -0.500081 -0.495234
v -0.040903 0.566526 0.070846
v -0.106628 0.522802 0.184684
v -0.145751 0.459132 0.252448
v -0.173484 0.376156 0.300482
v -0.193496 0.279529 0.335145
v -0.200322 0.175834 0.346967
v -0.000000 -0.500081 -0.571847
v -0.000000 -0.358131 -0.508622
v 0.254311 -0.358131 -0.440480
v 0.440479 -0.358131 -0.254311
v 0.508622 -0.358131 -0.000000
v -0.070846 0.566526 0.040903
v -0.184685 0.522802 0.106627
v -0.252448 0.459132 0.145751
v -0.300483 0.376156 0.173483
v -0.335145 0.279529 0.193496
v -0.346967 0.175834 0.200321
v 0.440479 -0.358131 0.254311
v 0.254311 -0.358131 0.440479
v -0.000000 -0.358131 0.508622
v -0.254311 -0.358131 0.440479
v -0.440479 -0.358131 0.254311
v -0.081461 0.566526 -0.000000
v -0.213255 0.522802 -0.000000
v -0.291502 0.459132 -0.000000
v -0.346967 0.376156 -0.000000
v -0.386992 0.279529 -0.000000
v -0.400643 0.175834 -0.000000
v -0.508622 -0.358131 -0.000000
v -0.440479 -0.358131 -0.254311
v -0.254311 -0.358131 -0.440480
v -0.218834 -0.040653 -0.379032
v -0.379031 -0.040653 -0.218834
v -0.070846 0.566526 -0.040903
v -0.184685 0.522802 -0.106628
v -0.252448 0.459132 -0.145751
v -0.300482 0.376156 -0.173484
v -0.335145 0.279529 -0.193496
v -0.346967 0.175834 -0.200322
v -0.437668 -0.040653 -0.000000
v -0.379032 -0.040653 0.218834
v -0.218834 -0.040653 0.379031
v -0.000000 -0.040653 0.437668
v 0.218834 -0.040653 0.379031
v -0.040903 0.566526 -0.070846
v -0.106628 0.522802 -0.184685
v -0.145751 0.459132 -0.252448
v -0.173484 0.376156 -0.300483
v -0.193496 0.279529 -0.335145
v -0.200322 0.175834 -0.346967
v 0.379032 -0.040653 0.218834
v 0.437668 -0.040653 -0.000000
v 0.379032 -0.040653 -0.218834
v 0.218834 -0.040653 -0.379032
v -0.000000 -0.040653 -0.437668
v 0.000000 0.671506 -0.037295
v 0.000000 0.562826 -0.109496
v 0.000000 0.459132 -0.291502
v 0.379331 0.319905 -0.000000
v -0.324000 0.339547 -0.187062
v 0.374123 0.339547 -0.000000
v 0.187061 0.339547 -0.324000
v -0.189666 0.319905 0.328510
v -0.187061 0.339547 0.324000
v 0.189666 0.319905 -0.328510
v -0.000000 0.219036 -0.408216
v -0.189665 0.319905 -0.328510
v -0.187061 0.339547 -0.324000
v -0.000000 0.240022 -0.405837
v 0.000000 0.242990 -0.391802
v 0.000000 0.212373 -0.395833
v -0.180522 0.342170 -0.312674
v -0.186457 0.313515 -0.322953
v -0.312674 0.342170 -0.180523
v -0.322953 0.313515 -0.186457
v -0.361045 0.342170 -0.000000
v -0.372914 0.313515 -0.000000
v -0.312674 0.342170 0.180522
v -0.322953 0.313515 0.186457
v -0.180522 0.342170 0.312674
v -0.186457 0.313515 0.322953
v -0.000000 0.342170 0.361045
v -0.000000 0.313515 0.372914
v 0.180522 0.342170 0.312674
v 0.186457 0.313515 0.322953
v 0.322953 0.313515 0.186457
v 0.312674 0.342170 0.180522
v 0.361045 0.342170 -0.000000
v 0.372914 0.313515 -0.000000
v 0.312674 0.342170 -0.180523
v 0.322953 0.313515 -0.186457
v 0.186457 0.313515 -0.322953
v 0.180522 0.342170 -0.312674
v 0.000000 0.342170 -0.361045
v 0.000000 0.313515 -0.372914
v 0.197917 0.212373 -0.342802
v 0.195901 0.242990 -0.339311
v 0.342801 0.212373 -0.197917
v 0.339311 0.242990 -0.195901
v 0.395833 0.212373 -0.000000
v 0.391802 0.242990 -0.000000
v 0.342801 0.212373 0.197916
v 0.339311 0.242990 0.195901
v 0.197916 0.212373 0.342801
v 0.195901 0.242990 0.339310
v -0.000000 0.212373 0.395833
v -0.000000 0.242990 0.391802
v -0.197917 0.212373 0.342801
v -0.195901 0.242990 0.339310
v -0.342801 0.212373 0.197916
v -0.339311 0.242990 0.195901
v -0.395833 0.212373 -0.000000
v -0.391802 0.242990 -0.000000
v -0.342801 0.212373 -0.197917
v -0.339311 0.242990 -0.195901
v -0.197916 0.212373 -0.342802
v -0.195901 0.242990 -0.339311
v -0.202918 0.240022 0.351465
v 0.202918 0.240022 -0.351465
v 0.204108 0.219036 -0.353525
v -0.204108 0.219036 0.353525
v -0.351465 0.240022 0.202918
v 0.351465 0.240022 -0.202918
v -0.353525 0.219036 0.204108
v 0.353525 0.219036 -0.204108
v -0.405837 0.240022 -0.000000
v 0.405837 0.240022 -0.000000
v -0.408216 0.219036 -0.000000
v 0.408216 0.219036 -0.000000
v -0.351465 0.240022 -0.202918
v 0.351465 0.240022 0.202918
v -0.353525 0.219036 -0.204108
v 0.353525 0.219036 0.204108
v -0.202918 0.240022 -0.351465
v 0.202918 0.240022 0.351465
v -0.204108 0.219036 -0.353525
v 0.204108 0.219036 0.353525
v -0.000000 0.319905 -0.379331
v -0.000000 0.240022 0.405836
v -0.000000 0.339547 -0.374123
v -0.000000 0.219036 0.408216
v -0.000000 -0.600820 -0.651560
v 0.325780 -0.600820 -0.564268
v 0.564268 -0.600820 -0.325780
v 0.651560 -0.600820 -0.000000
v 0.564268 -0.600820 0.325780
v 0.325780 -0.600820 0.564267
v -0.000000 -0.600820 0.651560
v -0.325780 -0.600820 0.564267
v -0.564268 -0.600820 0.325780
v -0.651560 -0.600820 -0.000000
v -0.564267 -0.600820 -0.325780
v -0.325780 -0.600820 -0.564268
v -0.000000 -0.600820 0.729417
v 0.364708 -0.600820 0.631693
v 0.364709 -0.600820 -0.631694
v -0.000000 -0.600820 -0.729417
v -0.364709 -0.600820 0.631693
v -0.729417 -0.600820 -0.000000
v -0.631694 -0.600820 0.364708
v -0.364708 -0.600820 -0.631694
v -0.631693 -0.600820 -0.364709
v 0.631694 -0.600820 -0.364709
v 0.631694 -0.600820 0.364708
v 0.729417 -0.600820 -0.000000
v -0.000000 -0.758338 0.729417
v 0.364708 -0.758338 0.631693
v 0.364709 -0.758338 -0.631694
v -0.000000 -0.758338 -0.729417
v -0.364709 -0.758338 0.631693
v -0.729417 -0.758338 -0.000000
v -0.631694 -0.758338 0.364708
v -0.364708 -0.758338 -0.631694
v -0.631693 -0.758338 -0.364709
v 0.631694 -0.758338 -0.364709
v 0.631694 -0.758338 0.364708
v 0.729417 -0.758338 -0.000000
v -0.000000 -0.758338 0.675203
v 0.337602 -0.758338 0.584743
v 0.337602 -0.758338 -0.584743
v -0.000000 -0.758338 -0.675204
v -0.337602 -0.758338 0.584743
v -0.675203 -0.758338 -0.000000
v -0.584743 -0.758338 0.337601
v -0.337601 -0.758338 -0.584743
v -0.584743 -0.758338 -0.337602
v 0.584743 -0.758338 -0.337602
v 0.584743 -0.758338 0.337602
v 0.675203 -0.758338 -0.000000
v -0.000000 -0.587388 0.593849
v 0.296924 -0.587388 0.514288
v 0.296924 -0.587388 -0.514288
v -0.000000 -0.587388 -0.593849
v -0.296924 -0.587388 0.514288
v -0.593849 -0.587388 -0.000000
v -0.514288 -0.587388 0.296924
v -0.296924 -0.587388 -0.514288
v -0.514288 -0.587388 -0.296925
v 0.514288 -0.587388 -0.296925
v 0.514288 -0.587388 0.296924
v 0.593849 -0.587388 -0.000000
v -0.000000 -0.451024 0.525710
v 0.262855 -0.451024 0.455278
v 0.262855 -0.451024 -0.455279
v -0.000000 -0.451024 -0.525710
v -0.262855 -0.451024 0.455278
v -0.525710 -0.451024 -0.000000
v -0.455278 -0.451024 0.262855
v -0.262855 -0.451024 -0.455279
v -0.455278 -0.451024 -0.262855
v 0.455278 -0.451024 -0.262855
v 0.455278 -0.451024 0.262855
v 0.525710 -0.451024 -0.000000
v -0.000000 -0.359497 0.489900
v 0.244950 -0.359497 0.424266
v 0.244950 -0.359497 -0.424266
v 0.000000 -0.359497 -0.489900
v -0.244950 -0.359497 0.424266
v -0.489900 -0.359497 -0.000000
v -0.424266 -0.359497 0.244950
v -0.244950 -0.359497 -0.424266
v -0.424266 -0.359497 -0.244950
v 0.424266 -0.359497 -0.244950
v 0.424266 -0.359497 0.244950
v 0.489900 -0.359497 -0.000000
v -0.000000 -0.040449 0.421262
v 0.210631 -0.040449 0.364823
v 0.210631 -0.040449 -0.364824
v 0.000000 -0.040449 -0.421262
v -0.210631 -0.040449 0.364823
v -0.421262 -0.040449 -0.000000
v -0.364823 -0.040449 0.210631
v -0.210631 -0.040449 -0.364824
v -0.364823 -0.040449 -0.210631
v 0.364824 -0.040449 -0.210631
v 0.364824 -0.040449 0.210631
v 0.421262 -0.040449 -0.000000
v -0.000000 0.173663 0.387196
v 0.193598 0.173663 0.335322
v 0.193598 0.173663 -0.335322
v 0.000000 0.173663 -0.387197
v -0.193598 0.173663 0.335322
v -0.387196 0.173663 -0.000000
v -0.335322 0.173663 0.193598
v -0.193598 0.173663 -0.335322
v -0.335322 0.173663 -0.193598
v 0.335322 0.173663 -0.193598
v 0.335322 0.173663 0.193598
v 0.387196 0.173663 -0.000000
v -0.000000 0.280718 0.368677
v 0.184339 0.280718 0.319284
v 0.184339 0.280718 -0.319284
v 0.000000 0.280718 -0.368677
v -0.184339 0.280718 0.319284
v -0.368677 0.280718 -0.000000
v -0.319284 0.280718 0.184338
v -0.184338 0.280718 -0.319284
v -0.319284 0.280718 -0.184339
v 0.319284 0.280718 -0.184339
v 0.319284 0.280718 0.184338
v 0.368677 0.280718 -0.000000
v -0.000000 0.373379 0.328348
v 0.164174 0.373379 0.284358
v 0.164174 0.373379 -0.284358
v 0.000000 0.373379 -0.328349
v -0.164174 0.373379 0.284358
v -0.328349 0.373379 -0.000000
v -0.284358 0.373379 0.164174
v -0.164174 0.373379 -0.284358
v -0.284358 0.373379 -0.164175
v 0.284358 0.373379 -0.164175
v 0.284358 0.373379 0.164174
v 0.328349 0.373379 -0.000000
v -0.000000 0.460911 0.272951
v 0.136475 0.460911 0.236382
v 0.136476 0.460911 -0.236383
v 0.000000 0.460911 -0.272951
v -0.136476 0.460911 0.236382
v -0.272951 0.460911 -0.000000
v -0.236382 0.460911 0.136475
v -0.136475 0.460911 -0.236383
v -0.236382 0.460911 -0.136476
v 0.236382 0.460911 -0.136476
v 0.236382 0.460911 0.136475
v 0.272951 0.460911 -0.000000
v -0.000000 0.521329 0.202129
v 0.101064 0.521329 0.175049
v 0.101064 0.521329 -0.175049
v 0.000000 0.521329 -0.202129
v -0.101064 0.521329 0.175049
v -0.202129 0.521329 -0.000000
v -0.175049 0.521329 0.101064
v -0.101064 0.521329 -0.175049
v -0.175049 0.521329 -0.101065
v 0.175049 0.521329 -0.101065
v 0.175049 0.521329 0.101064
v 0.202129 0.521329 -0.000000
v 0.000000 0.549948 0.128653
v 0.064327 0.549948 0.111417
v 0.064327 0.549948 -0.111417
v 0.000000 0.549948 -0.128654
v -0.064327 0.549948 0.111417
v -0.128653 0.549948 -0.000000
v -0.111417 0.549948 0.064326
v -0.064327 0.549948 -0.111417
v -0.111417 0.549948 -0.064327
v 0.111417 0.549948 -0.064327
v 0.111417 0.549948 0.064327
v 0.128653 0.549948 -0.000000
v 0.000000 0.556308 0.050321
v 0.025160 0.556308 0.043579
v 0.025161 0.556308 -0.043579
v 0.000000 0.556308 -0.050321
v -0.025160 0.556308 0.043579
v -0.050321 0.556308 -0.000000
v -0.043579 0.556308 0.025160
v -0.025160 0.556308 -0.043579
v -0.043579 0.556308 -0.025161
v 0.043579 0.556308 -0.025161
v 0.043579 0.556308 0.025160
v 0.050321 0.556308 -0.000000
v 0.094827 0.562826 -0.054748
v 0.054748 0.562826 -0.094827
v 0.109496 0.562826 -0.000000
v 0.094827 0.562826 0.054748
v 0.054748 0.562826 0.094826
v 0.000000 0.562826 0.109496
v -0.054748 0.562826 0.094826
v -0.094827 0.562826 0.054748
v -0.109496 0.562826 -0.000000
v -0.094827 0.562826 -0.054748
v -0.054748 0.562826 -0.094827
v 0.000000 0.566526 -0.081806
v 0.000000 0.556308 0.068978
v 0.034489 0.556308 0.059737
v 0.034489 0.556308 -0.059737
v 0.000000 0.556308 -0.068978
v -0.034489 0.556308 0.059737
v -0.068978 0.556308 -0.000000
v -0.059737 0.556308 0.034489
v -0.034489 0.556308 -0.059737
v -0.059737 0.556308 -0.034489
v 0.059737 0.556308 -0.034489
v 0.059737 0.556308 0.034489
v 0.068978 0.556308 -0.000000
v 0.000000 0.649949 -0.081806
v 0.040903 0.649949 -0.070846
v 0.070846 0.649949 -0.040903
v 0.081461 0.649949 -0.000000
v 0.070846 0.649949 0.040903
v 0.040903 0.649949 0.070846
v 0.000000 0.649949 0.081806
v -0.040903 0.649949 0.070846
v -0.070846 0.649949 0.040903
v -0.081461 0.649949 -0.000000
v -0.070846 0.649949 -0.040903
v -0.040903 0.649949 -0.070846
v 0.000000 0.662817 -0.067026
v 0.033513 0.662817 -0.058046
v 0.058046 0.662817 -0.033513
v 0.067026 0.662817 -0.000000
v 0.058046 0.662817 0.033513
v 0.033513 0.662817 0.058046
v 0.000000 0.662817 0.067026
v -0.033513 0.662817 0.058046
v -0.058046 0.662817 0.033513
v -0.067026 0.662817 -0.000000
v -0.058046 0.662817 -0.033513
v -0.033513 0.662817 -0.058046
v 0.018647 0.671506 -0.032298
v 0.032298 0.671506 -0.018647
v 0.037294 0.671506 -0.000000
v 0.032298 0.671506 0.018647
v 0.018647 0.671506 0.032298
v 0.000000 0.671506 0.037294
v -0.018647 0.671506 0.032298
v -0.032298 0.671506 0.018647
v -0.037294 0.671506 -0.000000
v -0.032298 0.671506 -0.018647
v -0.018647 0.671506 -0.032298
v 0.081461 0.591364 -0.000002
v 0.081461 0.605172 0.023917
v 0.081461 0.605175 -0.023919
v 0.081461 0.632793 -0.023918
v 0.081461 0.632790 0.023919
v 0.081461 0.646601 0.000001
v -0.081461 0.646601 0.000004
v -0.081461 0.632796 -0.023916
v -0.081461 0.605177 -0.023921
v -0.081461 0.632788 0.023920
v -0.081461 0.605169 0.023916
v -0.081461 0.591364 -0.000005
vt 0.416667 1.000000
vt 0.416667 0.833333
vt 0.500000 0.833333
vt 0.500000 1.000000
vt 0.416667 0.166667
vt 0.416667 0.000000
vt 0.500000 0.000000
vt 0.500000 0.166667
vt 0.416667 0.333333
vt 0.500000 0.333333
vt 0.416667 0.500000
vt 0.500000 0.500000
vt 0.416667 0.666667
vt 0.500000 0.666667
vt 0.519474 0.833333
vt 0.518669 1.000000
vt 0.518669 0.000000
vt 0.524963 0.166667
vt 0.532843 0.333333
vt 0.524963 0.500000
vt 0.518669 0.666667
vt 0.333333 0.553970
vt 0.333333 0.583333
vt 0.250000 0.583333
vt 0.250000 0.553970
vt 0.833333 0.553969
vt 0.833333 0.583333
vt 0.750000 0.583333
vt 0.750000 0.553970
vt 0.750000 0.750000
vt 0.750000 0.833333
vt 0.666667 0.833333
vt 0.666667 0.750000
vt 0.083333 0.500000
vt 0.083333 0.529364
vt 0.000000 0.529364
vt 0.000000 0.500000
vt 0.583333 0.500000
vt 0.583333 0.529364
vt 0.500000 0.529364
vt 0.500000 0.500000
vt 0.750000 0.666667
vt 0.666667 0.666667
vt 0.916667 0.553969
vt 0.916667 0.583333
vt 0.072796 0.937766
vt 0.156129 0.937766
vt 0.156129 0.937766
vt 0.072796 0.937766
vt 0.416667 0.553970
vt 0.416667 0.583333
vt 0.666667 0.553970
vt 0.666667 0.583333
vt 0.583333 0.583333
vt 0.583333 0.553970
vt 0.750000 0.916667
vt 0.666667 0.916667
vt 0.583333 0.750000
vt 0.583333 0.666667
vt 0.833333 0.500000
vt 0.750000 0.500000
vt 0.750000 0.500000
vt 0.833333 0.500000
vt 0.833333 0.637357
vt 0.833333 0.666667
vt 0.750000 0.637357
vt 0.750000 0.612643
vt 0.666667 0.612643
vt 0.666667 0.637357
vt 0.583334 0.916667
vt 0.583333 0.833333
vt 0.583333 0.500000
vt 0.500000 0.500000
vt 0.500000 0.500000
vt 0.583333 0.500000
vt 0.666667 0.500000
vt 0.666667 0.529364
vt 0.916667 0.500000
vt 0.916667 0.500000
vt 0.916667 0.637357
vt 0.916667 0.666667
vt 0.500000 0.553970
vt 0.500000 0.583333
vt 0.500000 0.833333
vt 0.500000 0.750000
vt 0.083333 0.500000
vt 0.000000 0.500000
vt 0.000000 0.500000
vt 0.083333 0.500000
vt 0.166667 0.500000
vt 0.166667 0.500000
vt 0.500000 0.666667
vt 0.416667 0.500000
vt 0.416667 0.500000
vt 0.250000 0.500000
vt 0.250000 0.500000
vt 0.583333 0.612643
vt 0.500000 0.612644
vt 0.583333 0.637357
vt 0.500000 0.916667
vt 0.333333 0.500000
vt 0.333333 0.500000
vt 0.416667 0.612644
vt 0.416667 0.916667
vt 0.416667 0.833333
vt 0.666667 0.500000
vt 0.666667 0.500000
vt 0.416667 0.529364
vt 0.416667 0.500000
vt 0.416667 0.750000
vt 1.000000 0.500000
vt 1.000000 0.500000
vt 0.416667 0.666667
vt 0.833333 0.500000
vt 0.750000 0.500000
vt 0.239463 0.937766
vt 0.239463 0.937766
vt 0.416667 0.500000
vt 0.333333 0.500000
vt 0.333333 0.750000
vt 0.333333 0.666667
vt 0.250000 0.500000
vt 0.166667 0.500000
vt 0.333333 0.612644
vt 0.500000 0.637357
vt 0.333333 0.916667
vt 0.333333 0.833334
vt 0.666667 0.500000
vt 0.583333 0.500000
vt 0.333333 0.529364
vt 0.333333 0.500000
vt 0.500000 0.500000
vt 0.166667 0.583333
vt 0.166667 0.553970
vt 0.250000 0.833334
vt 0.250000 0.750000
vt 0.083333 0.500000
vt 0.250000 0.666667
vt 0.000000 0.500000
vt 0.916667 0.500000
vt 0.250000 0.612643
vt 0.416667 0.637357
vt 0.250000 0.916667
vt 1.000000 0.500000
vt 0.916667 0.500000
vt 1.000000 0.500000
vt 0.166667 0.612643
vt 0.333333 0.637357
vt 0.166667 0.916667
vt 0.166667 0.833334
vt 0.583333 0.500000
vt 0.500000 0.500000
vt 0.250000 0.500000
vt 0.250000 0.529364
vt 0.166667 0.529364
vt 0.166667 0.500000
vt 0.166667 0.750000
vt 0.250000 0.500000
vt 0.166667 0.500000
vt 0.166667 0.666667
vt 0.833333 0.500000
vt 0.750000 0.500000
vt 0.322796 0.937766
vt 0.322796 0.937766
vt 0.416667 0.500000
vt 0.083333 0.750000
vt 0.083333 0.666667
vt 0.083333 0.500000
vt 0.677204 0.937766
vt 0.739463 0.937766
vt 0.739463 0.937766
vt 0.677204 0.937766
vt 0.333333 0.500000
vt 0.083333 0.612643
vt 0.083333 0.583333
vt 0.250000 0.637357
vt 0.083333 0.916667
vt 0.083333 0.833333
vt 0.666667 0.500000
vt 0.000000 0.500000
vt 1.000000 0.553970
vt 1.000000 0.583333
vt 0.000000 0.833333
vt 0.000000 0.750000
vt 0.000000 0.666667
vt 0.166667 0.637357
vt 0.083333 0.637357
vt 0.000000 0.916667
vt 0.406130 0.937766
vt 0.406130 0.937766
vt 0.000000 0.612643
vt 0.000000 0.583333
vt 0.000000 0.637357
vt 1.000000 0.833333
vt 1.000000 0.916667
vt 0.916666 0.916667
vt 0.916667 0.833333
vt 0.833333 0.500000
vt 0.750000 0.500000
vt 1.000000 0.500000
vt 1.000000 0.529364
vt 0.916667 0.529364
vt 0.916667 0.500000
vt 1.000000 0.750000
vt 0.916667 0.750000
vt 1.000000 0.666667
vt 0.833333 0.750000
vt 0.822796 0.937766
vt 0.822796 0.937766
vt 0.833333 0.612643
vt 1.000000 0.637357
vt 0.833333 0.916667
vt 0.833333 0.833333
vt 0.833333 0.529364
vt 0.916667 0.612644
vt 0.083333 0.553969
vt 0.750000 0.529364
vt 0.000000 0.553970
vt 1.000000 0.612643
vt 0.500000 0.637357
vt 0.416667 0.637357
vt 0.416667 0.612644
vt 0.500000 0.612644
vt 0.666667 0.637357
vt 0.750000 0.637357
vt 1.000000 0.529364
vt 0.916667 0.529364
vt 0.833333 0.612643
vt 0.750000 0.612643
vt 0.583333 0.637357
vt 0.750000 0.529364
vt 0.666667 0.529364
vt 0.916666 0.553969
vt 1.000000 0.553970
vt 0.083333 0.637357
vt 0.166667 0.637357
vt 0.333333 0.529364
vt 0.250000 0.529364
vt 0.666667 0.612643
vt 0.583333 0.612643
vt 0.666667 0.553970
vt 0.750000 0.553970
vt 0.250000 0.612644
vt 0.166667 0.612643
vt 0.250000 0.553970
vt 0.333333 0.553970
vt 0.833333 0.637357
vt 0.583333 0.529364
vt 0.833333 0.529364
vt 0.916667 0.612644
vt 0.583333 0.553970
vt 0.833333 0.553969
vt 0.250000 0.637357
vt 0.166667 0.529364
vt 0.333333 0.612644
vt 0.166667 0.553970
vt 0.500000 0.553970
vt 0.500000 0.529364
vt 0.916667 0.637357
vt 0.416667 0.553970
vt 0.416667 0.529364
vt 0.083333 0.529364
vt 0.083333 0.553969
vt 0.000000 0.553970
vt 0.000000 0.529364
vt 0.083333 0.612643
vt 0.333333 0.637357
vt 1.000000 0.637357
vt 1.000000 0.612643
vt 0.000000 0.637357
vt 0.000000 0.612643
vt 0.583333 0.500000
vt 0.666667 0.500000
vt 0.000000 0.500000
vt 0.083333 0.500000
vt 0.750000 0.500000
vt 0.833333 0.500000
vt 0.916667 0.500000
vt 0.500000 0.500000
vt 0.250000 0.500000
vt 0.333333 0.500000
vt 0.416667 0.500000
vt 0.166667 0.500000
vt 1.000000 0.500000
vt 0.000000 0.500000
vt 0.083333 0.500000
vt 0.333333 0.500000
vt 0.416667 0.500000
vt 0.166667 0.500000
vt 0.250000 0.500000
vt 0.500000 0.500000
vt 0.583333 0.500000
vt 0.666667 0.500000
vt 0.750000 0.500000
vt 0.166667 0.500000
vt 0.250000 0.500000
vt 0.500000 0.500000
vt 0.583333 0.500000
vt 0.916667 0.500000
vt 0.833333 0.500000
vt 0.833333 0.500000
vt 0.916667 0.500000
vt 0.000000 0.500000
vt 0.083333 0.500000
vt 0.333333 0.500000
vt 0.416667 0.500000
vt 0.666667 0.500000
vt 0.750000 0.500000
vt 1.000000 0.500000
vt 1.000000 0.500000
vt 0.833333 0.500000
vt 0.916667 0.500000
vt 0.000000 0.500000
vt 0.083333 0.500000
vt 0.333333 0.500000
vt 0.416667 0.500000
vt 0.250000 0.500000
vt 0.583333 0.500000
vt 0.666667 0.500000
vt 0.750000 0.500000
vt 1.000000 0.500000
vt 0.500000 0.500000
vt 0.166667 0.500000
vt 0.250000 0.500000
vt 0.333333 0.500000
vt 0.583333 0.500000
vt 0.666667 0.500000
vt 0.750000 0.500000
vt 0.833333 0.500000
vt 0.916667 0.500000
vt 1.000000 0.500000
vt 0.416667 0.500000
vt 0.500000 0.500000
vt 0.083333 0.500000
vt 0.166667 0.500000
vt 0.000000 0.500000
vt 0.833333 0.500000
vt 0.916667 0.500000
vt 0.000000 0.500000
vt 0.083333 0.500000
vt 0.333333 0.500000
vt 0.416667 0.500000
vt 0.250000 0.500000
vt 0.583333 0.500000
vt 0.666667 0.500000
vt 0.750000 0.500000
vt 1.000000 0.500000
vt 0.500000 0.500000
vt 0.166667 0.500000
vt 0.500000 0.500000
vt 0.583333 0.500000
vt 0.833333 0.500000
vt 0.916667 0.500000
vt 0.000000 0.500000
vt 0.083333 0.500000
vt 0.333333 0.500000
vt 0.416667 0.500000
vt 0.250000 0.500000
vt 0.666667 0.500000
vt 0.750000 0.500000
vt 1.000000 0.500000
vt 0.166667 0.500000
vt 0.166667 0.500000
vt 0.250000 0.500000
vt 0.500000 0.500000
vt 0.583333 0.500000
vt 0.833333 0.500000
vt 0.916667 0.500000
vt 0.000000 0.500000
vt 0.083333 0.500000
vt 0.333333 0.500000
vt 0.416667 0.500000
vt 0.666667 0.500000
vt 0.750000 0.500000
vt 1.000000 0.500000
vt 0.166667 0.500000
vt 0.250000 0.500000
vt 0.500000 0.500000
vt 0.583333 0.500000
vt 0.833333 0.500000
vt 0.916667 0.500000
vt 0.000000 0.500000
vt 0.083333 0.500000
vt 0.333333 0.500000
vt 0.416667 0.500000
vt 0.666667 0.500000
vt 0.750000 0.500000
vt 1.000000 0.500000
vt 0.083333 0.500000
vt 0.166667 0.500000
vt 0.250000 0.500000
vt 0.500000 0.500000
vt 0.583333 0.500000
vt 0.833333 0.500000
vt 0.916667 0.500000
vt 0.000000 0.500000
vt 0.333333 0.500000
vt 0.416667 0.500000
vt 0.666667 0.500000
vt 0.750000 0.500000
vt 1.000000 0.500000
vt 0.083333 0.500000
vt 0.166667 0.500000
vt 0.250000 0.500000
vt 0.500000 0.500000
vt 0.583333 0.500000
vt 0.833333 0.500000
vt 0.916667 0.500000
vt 0.000000 0.500000
vt 0.333333 0.500000
vt 0.416667 0.500000
vt 0.666667 0.500000
vt 0.750000 0.500000
vt 1.000000 0.500000
vt 0.416667 0.500000
vt 0.500000 0.500000
vt 0.083333 0.500000
vt 0.166667 0.500000
vt 0.250000 0.500000
vt 0.583333 0.500000
vt 0.833333 0.500000
vt 0.916667 0.500000
vt 0.000000 0.500000
vt 0.333333 0.500000
vt 0.666667 0.500000
vt 0.750000 0.500000
vt 1.000000 0.500000
vt 0.666667 0.500000
vt 0.750000 0.500000
vt 0.416667 0.500000
vt 0.500000 0.500000
vt 0.083333 0.500000
vt 0.166667 0.500000
vt 0.250000 0.500000
vt 0.583333 0.500000
vt 0.833333 0.500000
vt 0.916667 0.500000
vt 0.000000 0.500000
vt 0.333333 0.500000
vt 1.000000 0.500000
vt 0.916667 0.500000
vt 1.000000 0.500000
vt 0.666667 0.500000
vt 0.750000 0.500000
vt 0.416667 0.500000
vt 0.500000 0.500000
vt 0.083333 0.500000
vt 0.166667 0.500000
vt 0.250000 0.500000
vt 0.583333 0.500000
vt 0.833333 0.500000
vt 0.000000 0.500000
vt 0.333333 0.500000
vt 0.750000 0.500000
vt 0.833333 0.500000
vt 0.916667 0.500000
vt 1.000000 0.500000
vt 0.666667 0.500000
vt 0.416667 0.500000
vt 0.500000 0.500000
vt 0.083333 0.500000
vt 0.166667 0.500000
vt 0.250000 0.500000
vt 0.583333 0.500000
vt 0.000000 0.500000
vt 0.333333 0.500000
vt 0.383824 0.333333
vt 0.489463 0.937766
vt 0.391704 0.166667
vt 0.572797 0.937766
vt 0.489463 0.937766
vt 0.010537 0.937766
vt 0.989463 0.937766
vt 0.906129 0.937766
vt 0.312894 0.500000
vt 0.368487 0.500000
vt 0.603773 0.500000
vt 0.649551 0.500000
vt 0.267115 0.500000
vt 0.340225 0.500000
vt 0.249938 0.500000
vt 0.666728 0.500000
vt 0.576441 0.500000
vt 0.548180 0.500000
vt 0.428018 0.500000
vt 0.488648 0.500000
vt 0.239463 0.937766
vt 0.156129 0.937766
vt 0.322796 0.937766
vt 0.739463 0.937766
vt 0.677204 0.937766
vt 0.406130 0.937766
vt 0.822796 0.937766
vt 0.489463 0.937766
vt 0.906129 0.937766
vt 0.906129 0.937766
vt 0.572797 0.937766
vt 0.572797 0.937766
vt 0.989463 0.937766
vt 0.989463 0.937766
vt 0.391704 0.500000
vt 0.739463 0.937766
vt 0.822796 0.937766
vt 0.906129 0.937766
vt 0.989463 0.937766
vt 0.072796 0.937766
vt 0.156129 0.937766
vt 0.239463 0.937766
vt 0.322796 0.937766
vt 0.406130 0.937766
vt 0.489463 0.937766
vt 0.572797 0.937766
vt 0.677204 0.937766
vt 0.072796 0.937766
vt 0.989463 0.937766
vt 0.010537 0.937766
vt 0.010537 0.937766
vt 0.010537 0.937766
vt 0.000000 0.000000
vt 0.000000 0.000000
vt 0.000000 0.000000
vt 0.000000 0.000000
vt 0.000000 0.000000
vt 0.000000 0.000000
vt 0.000000 0.000000
vt 0.000000 0.000000
vt 0.000000 0.000000
vt 0.000000 0.000000
vt 0.000000 0.000000
vt 0.000000 0.000000
vt 0.397997 0.666667
vt 0.397193 0.833333
vt 0.397997 1.000000
vt 0.397997 0.000000
vt 0.489463 0.937766
vn -0.3036 0.8238 -0.4787
vn -0.2754 0.8321 -0.4815
vn 0.2754 0.8321 -0.4815
vn 0.3036 0.8238 -0.4787
vn 0.0089 0.0008 -1.0000
vn 0.0074 0.0007 -1.0000
vn -0.0073 0.0007 -1.0000
vn -0.0088 0.0008 -1.0000
vn 0.2707 -0.8331 -0.4823
vn 0.2529 -0.8378 -0.4838
vn -0.2529 -0.8378 -0.4838
vn -0.2706 -0.8331 -0.4823
vn 0.2529 -0.8379 0.4838
vn 0.2707 -0.8332 0.4823
vn -0.2707 -0.8332 0.4823
vn -0.2529 -0.8379 0.4837
vn 0.0074 0.0006 1.0000
vn 0.0089 0.0008 1.0000
vn -0.0089 0.0008 1.0000
vn -0.0074 0.0006 1.0000
vn -0.2754 0.8321 0.4815
vn -0.3036 0.8238 0.4787
vn 0.3036 0.8238 0.4787
vn 0.2754 0.8320 0.4815
vn 0.5567 0.7100 -0.4312
vn -0.0166 0.0016 -0.9999
vn -0.5065 -0.7385 -0.4450
vn -0.5065 -0.7386 0.4449
vn -0.0167 0.0014 0.9999
vn 0.5567 0.7100 0.4313
vn 0.4957 0.1305 0.8586
vn 0.4837 0.2536 0.8377
vn -0.0000 0.2536 0.9673
vn 0.0000 0.1305 0.9914
vn -0.4957 0.1305 -0.8586
vn -0.4837 0.2536 -0.8377
vn -0.0000 0.2536 -0.9673
vn -0.0000 0.1305 -0.9914
vn -0.0000 0.6612 -0.7503
vn -0.0000 0.8537 -0.5207
vn 0.2604 0.8537 -0.4510
vn 0.3751 0.6612 -0.6497
vn -0.8562 0.1501 0.4943
vn -0.8586 0.1305 0.4957
vn -0.9914 0.1305 -0.0000
vn -0.9887 0.1501 -0.0000
vn 0.8562 0.1501 -0.4943
vn 0.8586 0.1305 -0.4957
vn 0.9914 0.1305 0.0000
vn 0.9887 0.1500 0.0000
vn -0.0000 0.4649 -0.8854
vn 0.4427 0.4649 -0.7668
vn -0.8586 0.1305 -0.4957
vn -0.8377 0.2536 -0.4837
vn -0.8559 -0.0418 0.5155
vn -0.5000 0.0000 0.8660
vn -0.4603 0.3906 0.7972
vn -0.7636 0.4221 0.4886
vn 0.8586 0.1305 0.4957
vn 0.8377 0.2536 0.4837
vn 0.4957 0.1305 -0.8586
vn 0.4837 0.2536 -0.8377
vn 0.8377 0.2536 -0.4837
vn -0.0000 0.9640 -0.2661
vn 0.1330 0.9640 -0.2304
vn 0.6497 0.6612 -0.3751
vn 0.7668 0.4649 -0.4427
vn -0.4218 0.5369 -0.7306
vn -0.0000 0.5369 -0.8437
vn -0.0000 0.5831 -0.8124
vn -0.4062 0.5831 -0.7036
vn -0.4619 0.3827 -0.8001
vn -0.4427 0.4649 -0.7668
vn -0.0000 0.3827 -0.9239
vn 0.4619 0.3827 -0.8001
vn 0.2303 0.9640 -0.1329
vn 0.4510 0.8537 -0.2604
vn 0.7306 0.5369 -0.4218
vn 0.8437 0.5369 0.0000
vn 0.8124 0.5831 0.0000
vn 0.7036 0.5831 -0.4062
vn 0.4943 0.1501 -0.8562
vn -0.7306 0.5369 -0.4218
vn -0.7036 0.5831 -0.4062
vn -0.8001 0.3827 -0.4619
vn -0.7668 0.4649 -0.4427
vn 0.9673 0.2536 -0.0000
vn 0.5207 0.8537 0.0000
vn 0.7503 0.6612 0.0000
vn -0.7306 0.5369 0.4218
vn -0.8437 0.5369 -0.0000
vn -0.8124 0.5831 0.0000
vn -0.7036 0.5831 0.4062
vn -0.4218 0.5369 0.7306
vn -0.4062 0.5831 0.7036
vn 0.8854 0.4649 0.0000
vn 0.7306 0.5369 0.4218
vn 0.7036 0.5831 0.4062
vn -0.0000 0.5369 0.8437
vn -0.0000 0.5831 0.8124
vn 0.8001 0.3827 -0.4619
vn 0.9239 0.3827 0.0000
vn 0.2658 0.9640 -0.0000
vn 0.4218 0.5369 0.7306
vn 0.4062 0.5831 0.7036
vn 0.8001 0.3827 0.4619
vn 0.2303 0.9640 0.1329
vn 0.4510 0.8537 0.2604
vn 0.4218 0.5369 -0.7306
vn 0.4062 0.5831 -0.7036
vn 0.8562 0.1500 0.4943
vn 0.6497 0.6612 0.3751
vn 0.7668 0.4649 0.4427
vn -0.4739 0.3190 -0.8208
vn -0.0000 0.3190 -0.9477
vn 0.0000 0.0000 1.0000
vn 0.0000 0.3906 0.9206
vn 0.8208 0.3190 0.4739
vn 0.4739 0.3190 0.8208
vn 0.3751 0.6612 0.6497
vn 0.4427 0.4649 0.7668
vn -0.0000 0.3190 0.9477
vn -0.4739 0.3190 0.8208
vn 0.4619 0.3827 0.8001
vn 0.1330 0.9640 0.2304
vn 0.2604 0.8537 0.4510
vn 0.4739 0.3190 -0.8208
vn 0.8208 0.3190 -0.4739
vn 0.4943 0.1501 0.8562
vn 0.9477 0.3190 0.0000
vn -0.4837 0.2536 0.8377
vn -0.4957 0.1305 0.8586
vn -0.0000 0.8537 0.5207
vn -0.0000 0.6612 0.7503
vn -0.8208 0.3190 0.4739
vn -0.0000 0.4649 0.8854
vn -0.9477 0.3190 -0.0000
vn -0.8208 0.3190 -0.4739
vn -0.0000 0.3827 0.9239
vn -0.0000 0.9640 0.2661
vn -0.9810 0.1942 -0.0000
vn -0.8495 0.1942 -0.4905
vn -0.4619 0.3827 0.8001
vn -0.1330 0.9640 0.2304
vn -0.2604 0.8537 0.4510
vn 0.8495 0.1942 -0.4905
vn 0.9810 0.1942 0.0000
vn -0.0000 0.1501 0.9887
vn -0.4943 0.1501 0.8562
vn -0.3751 0.6612 0.6497
vn -0.0000 0.1942 0.9810
vn -0.4905 0.1942 0.8495
vn -0.4427 0.4649 0.7668
vn -0.4905 0.1942 -0.8495
vn -0.0000 0.1942 -0.9810
vn 0.5000 0.0000 0.8660
vn 0.4603 0.3906 0.7972
vn 0.8495 0.1942 0.4905
vn -0.6497 0.6612 0.3751
vn -0.7668 0.4649 0.4427
vn -0.8495 0.1942 0.4905
vn 0.5000 0.0000 -0.8660
vn -0.0000 0.0000 -1.0000
vn -0.0000 0.3906 -0.9206
vn 0.4603 0.3906 -0.7972
vn 0.4905 0.1942 0.8495
vn -0.8001 0.3827 0.4619
vn -0.8377 0.2536 0.4837
vn -0.2303 0.9640 0.1329
vn -0.4510 0.8537 0.2604
vn 0.4905 0.1942 -0.8495
vn -0.9673 0.2536 -0.0000
vn -0.5207 0.8537 -0.0000
vn -0.7503 0.6612 -0.0000
vn -0.8854 0.4649 -0.0000
vn -0.2658 0.9640 -0.0000
vn 0.8559 -0.0418 0.5155
vn 0.7636 0.4221 0.4886
vn -0.9239 0.3827 -0.0000
vn -0.2303 0.9640 -0.1329
vn -0.4510 0.8537 -0.2604
vn -0.4943 0.1501 -0.8562
vn -0.0000 0.1501 -0.9887
vn -0.8562 0.1501 -0.4943
vn -0.6497 0.6612 -0.3751
vn -0.3751 0.6612 -0.6497
vn -0.5000 0.0000 -0.8660
vn -0.4603 0.3906 -0.7972
vn -0.1330 0.9640 -0.2304
vn -0.2604 0.8537 -0.4510
vn 0.9666 0.2563 -0.0000
vn 0.8371 0.2563 0.4833
vn -0.0000 0.9805 -0.1967
vn 0.0983 0.9805 -0.1703
vn -0.4104 -0.8806 -0.2369
vn -0.4739 -0.8806 -0.0000
vn -0.0000 -0.7085 -0.7057
vn -0.3528 -0.7085 -0.6111
vn 0.1703 0.9805 -0.0983
vn 0.1967 0.9805 -0.0000
vn 0.2369 -0.8806 -0.4104
vn -0.0000 -0.8806 -0.4739
vn -0.2069 0.9784 -0.0000
vn -0.1792 0.9784 -0.1034
vn -0.0983 0.9805 0.1703
vn -0.1703 0.9805 0.0983
vn -0.0000 -0.8806 0.4739
vn 0.2369 -0.8806 0.4104
vn 0.6111 -0.7085 -0.3528
vn 0.3528 -0.7085 -0.6111
vn 0.0000 0.2563 -0.9666
vn 0.4833 0.2563 -0.8371
vn -0.0000 0.9784 -0.2069
vn 0.1034 0.9784 -0.1792
vn -0.3528 -0.7085 0.6111
vn -0.0000 -0.7085 0.7057
vn 0.8371 0.2563 -0.4833
vn 0.1034 0.9784 0.1792
vn -0.0000 0.9784 0.2069
vn -0.0983 0.9805 -0.1703
vn 0.4104 -0.8806 -0.2369
vn -0.2369 -0.8806 -0.4104
vn -0.6111 -0.7085 -0.3528
vn 0.1792 0.9784 -0.1034
vn -0.1034 0.9784 -0.1792
vn 0.0000 0.9805 0.1967
vn -0.2369 -0.8806 0.4104
vn 0.3528 -0.7085 0.6111
vn 0.4968 0.1126 0.8605
vn -0.0000 0.1126 0.9936
vn -0.1034 0.9784 0.1792
vn -0.9936 0.1126 -0.0000
vn -0.8605 0.1126 -0.4968
vn -0.4968 0.1126 -0.8605
vn 0.8605 0.1126 -0.4968
vn 0.9936 0.1126 -0.0000
vn -0.4833 0.2563 -0.8371
vn 0.0000 0.1126 -0.9936
vn 0.4968 0.1126 -0.8605
vn -0.8371 0.2563 -0.4833
vn 0.8605 0.1126 0.4968
vn -0.8605 0.1126 0.4968
vn 0.1792 0.9784 0.1034
vn -0.4833 0.2563 0.8371
vn -0.8371 0.2563 0.4833
vn -0.0000 0.2563 0.9666
vn 0.4833 0.2563 0.8371
vn -0.9666 0.2563 -0.0000
vn -0.4968 0.1126 0.8605
vn 0.2069 0.9784 0.0000
vn 0.6111 -0.7085 0.3528
vn 0.7057 -0.7085 0.0000
vn 0.4739 -0.8806 0.0000
vn 0.1703 0.9805 0.0983
vn 0.0983 0.9805 0.1703
vn -0.4104 -0.8806 0.2369
vn -0.7057 -0.7085 0.0000
vn -0.1792 0.9784 0.1034
vn -0.1966 0.9805 -0.0000
vn 0.4104 -0.8806 0.2369
vn -0.6111 -0.7085 0.3528
vn -0.1703 0.9805 -0.0983
vn 0.7307 0.5368 -0.4219
vn 0.4219 0.5368 -0.7307
vn -0.8437 0.5368 0.0000
vn -0.7307 0.5368 0.4219
vn 0.0000 0.5368 -0.8437
vn -0.4219 0.5368 -0.7307
vn -0.7307 0.5368 -0.4219
vn 0.8437 0.5368 0.0000
vn -0.0000 0.5368 0.8437
vn 0.4219 0.5368 0.7307
vn 0.7307 0.5368 0.4219
vn -0.4219 0.5368 0.7307
vn 0.0000 1.0000 0.0000
vn 0.8660 0.0000 -0.5000
vn 1.0000 0.0000 0.0000
vn -0.8660 0.0000 -0.5000
vn -0.8660 0.0000 0.5000
vn -1.0000 0.0000 -0.0000
vn 0.8660 0.0000 0.5000
vn 0.0000 -1.0000 -0.0000
vn 0.0000 -0.4297 -0.9030
vn 0.0000 -0.4377 -0.8991
vn -0.4495 -0.4377 -0.7786
vn -0.4515 -0.4297 -0.7820
vn -0.7820 -0.4297 0.4515
vn -0.7786 -0.4377 0.4495
vn -0.4495 -0.4377 0.7786
vn -0.4515 -0.4297 0.7820
vn 0.0000 -0.4297 0.9030
vn 0.0000 -0.4377 0.8991
vn 0.4495 -0.4377 0.7786
vn 0.4515 -0.4297 0.7820
vn 0.7820 -0.4297 0.4515
vn 0.7786 -0.4377 0.4495
vn 0.8991 -0.4377 0.0000
vn 0.9030 -0.4297 0.0000
vn -0.7820 -0.4297 -0.4515
vn -0.7786 -0.4377 -0.4495
vn -0.8991 -0.4377 -0.0000
vn -0.9030 -0.4297 -0.0000
vn 0.7820 -0.4297 -0.4515
vn 0.7786 -0.4377 -0.4495
vn 0.4495 -0.4377 -0.7786
vn 0.4515 -0.4297 -0.7820
vn 0.4563 -0.4089 0.7903
vn 0.7903 -0.4089 0.4563
vn 0.9126 -0.4089 0.0000
vn 0.7903 -0.4089 -0.4563
vn -0.4563 -0.4089 -0.7903
vn -0.7903 -0.4089 -0.4563
vn 0.0000 -0.4089 -0.9126
vn -0.7903 -0.4089 0.4563
vn -0.4563 -0.4089 0.7903
vn 0.0000 -0.4089 0.9126
vn -0.9126 -0.4089 -0.0000
vn 0.4563 -0.4089 -0.7903
vn -0.9564 -0.2920 -0.0000
vn -0.8283 -0.2920 0.4782
vn 0.4782 -0.2920 0.8283
vn 0.8283 -0.2920 0.4782
vn 0.9564 -0.2920 0.0000
vn 0.8283 -0.2920 -0.4782
vn -0.4782 -0.2920 -0.8283
vn -0.8283 -0.2920 -0.4782
vn 0.0000 -0.2920 -0.9564
vn -0.4782 -0.2920 0.8283
vn 0.0000 -0.2920 0.9564
vn 0.4782 -0.2920 -0.8283
vn 0.4914 -0.1846 -0.8511
vn -0.0000 -0.1846 -0.9828
vn -0.9828 -0.1846 -0.0000
vn -0.8511 -0.1846 0.4914
vn 0.4914 -0.1846 0.8511
vn 0.8511 -0.1846 0.4914
vn 0.9828 -0.1846 0.0000
vn 0.8511 -0.1846 -0.4914
vn -0.4914 -0.1846 -0.8511
vn -0.8511 -0.1846 -0.4914
vn -0.4914 -0.1846 0.8511
vn 0.0000 -0.1846 0.9828
vn 0.4933 -0.1636 -0.8544
vn -0.0000 -0.1636 -0.9865
vn -0.9865 -0.1636 0.0000
vn -0.8544 -0.1636 0.4933
vn 0.4933 -0.1636 0.8544
vn 0.8544 -0.1636 0.4933
vn 0.9865 -0.1636 0.0000
vn 0.8544 -0.1636 -0.4933
vn -0.4933 -0.1636 -0.8544
vn -0.8544 -0.1636 -0.4933
vn -0.4933 -0.1636 0.8544
vn 0.0000 -0.1636 0.9865
vn 0.8310 -0.2815 -0.4798
vn 0.4798 -0.2815 -0.8310
vn -0.0000 -0.2815 -0.9595
vn -0.9595 -0.2815 0.0000
vn -0.8310 -0.2815 0.4798
vn 0.4798 -0.2815 0.8310
vn 0.8310 -0.2815 0.4798
vn 0.9595 -0.2815 0.0000
vn -0.4798 -0.2815 -0.8310
vn -0.8310 -0.2815 -0.4798
vn -0.4798 -0.2815 0.8310
vn 0.0000 -0.2815 0.9595
vn 0.7675 -0.4631 -0.4431
vn 0.4431 -0.4631 -0.7675
vn 0.0000 -0.4631 -0.8863
vn -0.8863 -0.4631 0.0000
vn -0.7675 -0.4631 0.4431
vn 0.4431 -0.4631 0.7675
vn 0.7675 -0.4631 0.4431
vn 0.8863 -0.4631 0.0000
vn -0.4431 -0.4631 -0.7675
vn -0.7675 -0.4631 -0.4431
vn -0.4431 -0.4631 0.7675
vn 0.0000 -0.4631 0.8863
vn -0.6632 -0.6431 -0.3829
vn -0.7657 -0.6431 0.0000
vn 0.6632 -0.6431 -0.3829
vn 0.3829 -0.6431 -0.6632
vn 0.0000 -0.6431 -0.7657
vn -0.6632 -0.6431 0.3829
vn 0.3829 -0.6431 0.6632
vn 0.6632 -0.6431 0.3829
vn 0.7657 -0.6431 0.0000
vn -0.3829 -0.6431 -0.6632
vn -0.3829 -0.6431 0.6632
vn 0.0000 -0.6431 0.7657
vn -0.2665 -0.8461 0.4616
vn -0.0000 -0.8461 0.5330
vn -0.4616 -0.8461 -0.2665
vn -0.5330 -0.8461 0.0000
vn 0.4616 -0.8461 -0.2665
vn 0.2665 -0.8461 -0.4616
vn -0.0000 -0.8461 -0.5330
vn -0.4616 -0.8461 0.2665
vn 0.2665 -0.8461 0.4616
vn 0.4616 -0.8461 0.2665
vn 0.5330 -0.8461 0.0000
vn -0.2665 -0.8461 -0.4616
vn 0.2227 -0.9664 0.1286
vn 0.2571 -0.9664 0.0000
vn -0.1286 -0.9664 0.2227
vn 0.0000 -0.9664 0.2571
vn -0.2227 -0.9664 -0.1286
vn -0.2571 -0.9664 -0.0000
vn 0.2227 -0.9664 -0.1286
vn 0.1286 -0.9664 -0.2227
vn -0.0000 -0.9664 -0.2571
vn -0.2227 -0.9664 0.1286
vn 0.1286 -0.9664 0.2227
vn -0.1286 -0.9664 -0.2227
vn 0.0000 -0.9981 0.0619
vn 0.0309 -0.9981 0.0536
vn 0.0536 -0.9981 0.0309
vn 0.0619 -0.9981 0.0000
vn -0.0309 -0.9981 0.0536
vn -0.0536 -0.9981 -0.0309
vn -0.0619 -0.9981 -0.0000
vn 0.0536 -0.9981 -0.0309
vn 0.0309 -0.9981 -0.0536
vn 0.0000 -0.9981 -0.0619
vn -0.0536 -0.9981 0.0309
vn -0.0309 -0.9981 -0.0536
vn 0.9511 0.3089 0.0001
vn 0.8447 0.5352 -0.0000
vn 0.9058 0.1366 0.4012
vn 0.0662 0.9912 -0.1147
vn 0.1144 0.9913 -0.0658
vn 0.1318 0.9913 -0.0000
vn 0.1144 0.9913 0.0658
vn 0.0662 0.9912 0.1147
vn -0.0000 0.9912 0.1325
vn -0.0662 0.9912 0.1147
vn -0.1144 0.9913 0.0658
vn -0.1318 0.9913 0.0000
vn -0.1144 0.9913 -0.0658
vn -0.0662 0.9912 -0.1147
vn -0.0000 0.9912 -0.1325
vn 0.0000 0.8624 0.5062
vn -0.2531 0.8624 0.4384
vn 0.2531 0.8624 0.4384
vn -0.0000 0.8624 -0.5062
vn 0.2531 0.8624 -0.4384
vn 0.4401 0.8617 0.2527
vn -0.2531 0.8624 -0.4384
vn 0.5093 0.8606 0.0000
vn -0.7636 0.4221 -0.4886
vn -0.4401 0.8617 -0.2527
vn 0.7636 0.4221 -0.4886
vn 0.4401 0.8617 -0.2527
vn -0.8447 0.5352 -0.0001
vn -0.9511 0.3089 0.0002
vn -0.9058 0.1366 0.4012
vn 0.8559 -0.0418 -0.5155
vn -0.9058 0.1367 -0.4011
vn 0.9058 0.1366 -0.4011
vn -0.8559 -0.0418 -0.5155
vn 0.0000 0.9863 -0.1647
vn -0.0823 0.9863 -0.1426
vn -0.1426 0.9863 -0.0823
vn -0.1647 0.9863 -0.0000
vn -0.1426 0.9863 0.0823
vn -0.0823 0.9863 0.1426
vn 0.0000 0.9863 0.1647
vn 0.0823 0.9863 0.1426
vn 0.1426 0.9863 0.0823
vn 0.1647 0.9863 -0.0000
vn 0.1426 0.9863 -0.0823
vn 0.0823 0.9863 -0.1426
vn -0.4401 0.8617 0.2527
vn -0.5093 0.8606 -0.0000
vn 0.0167 0.0015 0.9999
vn -0.5567 0.7100 -0.4313
vn 0.5065 -0.7386 0.4449
vn 0.0167 0.0015 -0.9999
vn -0.5567 0.7100 0.4313
vn 0.5065 -0.7386 -0.4450
vn 0.9092 -0.0412 0.4144
vn 0.9933 -0.1160 0.0000
vn 0.9091 -0.0411 -0.4144
vn -0.9092 -0.0412 0.4144
vn -0.9933 -0.1160 -0.0000
vn -0.9091 -0.0411 -0.4145

f 1/1/1 6/2/2 12/3/3 7/4/4
f 2/5/5 1/6/6 7/7/7 8/8/8
f 3/9/9 2/5/10 8/8/11 9/10/12
f 4/11/13 3/9/14 9/10/15 10/12/16
f 5/13/17 4/11/18 10/12/19 11/14/20
f 6/2/21 5/13/22 11/14/23 12/3/24
f 7/4/4 12/3/3 480/15/25 479/16/25
f 8/8/8 7/7/7 479/17/26 478/18/26
f 9/10/12 8/8/11 478/18/27 475/19/27
f 10/12/16 9/10/15 475/19/28 476/20/28
f 11/14/20 10/12/19 476/20/29 477/21/29
f 12/3/24 11/14/23 477/21/30 480/15/30
f 193/22/31 71/23/32 82/24/33 195/25/34
f 205/26/35 137/27/36 15/28/37 158/29/38
f 146/30/39 13/31/40 24/32/41 25/33/42
f 105/34/43 198/35/44 200/36/45 116/37/46
f 39/38/47 186/39/48 188/40/49 50/41/50
f 14/42/51 146/30/39 25/33/42 26/43/52
f 203/44/53 126/45/54 137/27/36 205/26/35
f 100/46/55 89/47/56 441/48/57 442/49/58
f 191/50/59 60/51/60 71/23/32 193/22/31
f 185/52/61 27/53/62 38/54/63 187/55/48
f 158/29/38 15/28/37 27/53/62 185/52/61
f 13/31/40 145/56/64 411/57/65 24/32/41
f 26/43/52 25/33/42 36/58/66 37/59/67
f 66/60/68 95/61/69 42/62/70 65/63/71
f 160/64/72 136/65/73 14/42/51 182/66/74
f 15/28/37 183/67/74 180/68/75 27/53/62
f 182/66/74 14/42/51 26/43/52 181/69/75
f 24/32/41 411/57/65 410/70/76 35/71/77
f 87/72/78 86/73/79 51/74/80 44/75/81
f 28/76/82 184/77/61 186/39/48 39/38/47
f 25/33/42 24/32/41 35/71/77 36/58/66
f 73/78/83 66/60/68 65/63/71 64/79/84
f 162/80/85 125/81/86 136/65/73 160/64/72
f 189/82/49 49/83/87 60/51/60 191/50/59
f 36/58/66 35/71/77 46/84/88 47/85/89
f 75/86/90 74/87/91 63/88/92 62/89/93
f 76/90/94 75/86/90 62/89/93 55/91/95
f 37/59/67 36/58/66 47/85/89 48/92/96
f 86/73/79 85/93/97 52/94/98 51/74/80
f 77/95/99 76/90/94 55/91/95 54/96/100
f 38/54/63 179/97/101 177/98/102 49/83/87
f 181/69/75 26/43/52 37/59/67 178/99/101
f 35/71/77 410/70/76 412/100/103 46/84/88
f 85/93/97 84/101/104 53/102/105 52/94/98
f 49/83/87 177/98/102 174/103/106 60/51/60
f 27/53/62 180/68/75 179/97/101 38/54/63
f 46/84/88 412/100/103 413/104/107 57/105/108
f 88/106/109 87/72/78 44/75/81 43/107/110
f 50/41/50 188/40/49 190/108/59 61/109/111
f 47/85/89 46/84/88 57/105/108 58/110/112
f 95/61/69 88/106/109 43/107/110 42/62/70
f 74/111/91 73/78/83 64/79/84 63/112/92
f 48/92/96 47/85/89 58/110/112 59/113/113
f 119/114/114 96/115/115 95/61/69 66/60/68
f 89/47/56 78/116/116 440/117/117 441/48/57
f 84/101/104 77/95/99 54/96/100 53/102/105
f 106/118/118 107/119/119 84/101/104 85/93/97
f 59/113/113 58/110/112 69/120/120 70/121/121
f 108/122/122 109/123/123 76/90/94 77/95/99
f 107/119/119 108/122/122 77/95/99 84/101/104
f 60/51/60 174/103/106 173/124/124 71/23/32
f 178/99/101 37/59/67 48/92/96 176/125/102
f 57/105/108 413/104/107 414/126/125 68/127/126
f 97/128/127 98/129/128 87/72/78 88/106/109
f 61/109/111 190/108/59 192/130/31 72/131/129
f 58/110/112 57/105/108 68/127/126 69/120/120
f 98/129/128 99/132/130 86/73/79 87/72/78
f 195/25/34 82/24/33 93/133/131 197/134/132
f 69/120/120 68/127/126 79/135/133 80/136/134
f 109/123/123 110/137/135 75/86/90 76/90/94
f 99/132/130 106/118/118 85/93/97 86/73/79
f 70/121/121 69/120/120 80/136/134 81/138/136
f 110/137/135 117/139/137 74/87/91 75/86/90
f 118/140/138 119/114/114 66/60/68 73/78/83
f 71/23/32 173/124/124 171/141/139 82/24/33
f 176/125/102 48/92/96 59/113/113 175/142/106
f 68/127/126 414/126/125 415/143/140 79/135/133
f 96/115/115 97/128/127 88/106/109 95/61/69
f 128/144/141 121/145/142 118/140/138 117/146/137
f 82/24/33 171/141/139 169/147/143 93/133/131
f 175/142/106 59/113/113 70/121/121 172/148/124
f 79/135/133 415/143/140 416/149/144 90/150/145
f 141/151/146 140/152/147 99/132/130 98/129/128
f 83/153/148 194/154/34 196/155/132 94/156/149
f 80/136/134 79/135/133 90/150/145 91/157/150
f 131/158/151 130/159/152 109/123/123 108/122/122
f 117/146/137 118/140/138 73/78/83 74/111/91
f 81/138/136 80/136/134 91/157/150 92/160/153
f 120/161/154 143/162/155 96/115/115 119/114/114
f 78/116/116 67/163/156 439/164/157 440/117/117
f 140/152/147 139/165/158 106/118/118 99/132/130
f 92/160/153 91/157/150 102/166/159 103/167/160
f 130/159/152 129/168/161 110/137/135 109/123/123
f 23/169/162 421/170/163 434/171/164 435/172/165
f 132/173/166 131/158/151 108/122/122 107/119/119
f 93/133/131 169/147/143 167/174/167 104/175/168
f 172/148/124 70/121/121 81/138/136 170/176/139
f 90/150/145 416/149/144 417/177/169 101/178/170
f 143/162/155 142/179/171 97/128/127 96/115/115
f 94/156/149 196/155/132 198/35/44 105/34/43
f 91/157/150 90/150/145 101/178/170 102/166/159
f 139/165/158 132/173/166 107/119/119 106/118/118
f 129/168/161 128/180/141 117/139/137 110/137/135
f 201/181/45 115/182/172 126/45/54 203/44/53
f 102/166/159 101/178/170 112/183/173 113/184/174
f 105/34/43 116/37/46 128/180/141 129/168/161
f 142/179/171 141/151/146 98/129/128 97/128/127
f 103/167/160 102/166/159 113/184/174 114/185/175
f 61/109/111 72/131/129 132/173/166 139/165/158
f 121/145/142 120/161/154 119/114/114 118/140/138
f 168/186/143 92/160/153 103/167/160 166/187/167
f 170/176/139 81/138/136 92/160/153 168/186/143
f 101/178/170 417/177/169 418/188/176 112/183/173
f 67/163/156 56/189/177 438/190/178 439/164/157
f 72/131/129 83/153/148 131/158/151 132/173/166
f 104/175/168 167/174/167 165/191/179 115/192/172
f 166/187/167 103/167/160 114/185/175 164/193/179
f 112/194/173 418/195/176 419/196/180 123/197/181
f 138/198/182 16/199/183 143/162/155 120/161/154
f 116/200/46 200/201/45 202/202/53 127/203/184
f 113/204/174 112/194/173 123/197/181 124/205/185
f 127/203/184 138/198/182 120/161/154 121/145/142
f 116/200/46 127/203/184 121/145/142 128/144/141
f 114/206/175 113/204/174 124/205/185 125/81/86
f 50/41/50 61/109/111 139/165/158 140/152/147
f 16/199/183 28/76/82 142/179/171 143/162/155
f 94/156/149 105/34/43 129/168/161 130/159/152
f 125/81/86 124/205/185 135/207/186 136/65/73
f 28/76/82 39/38/47 141/151/146 142/179/171
f 421/170/163 133/208/187 445/209/188 434/171/164
f 83/153/148 94/156/149 130/159/152 131/158/151
f 137/27/36 161/210/72 183/67/74 15/28/37
f 164/211/179 114/206/175 125/81/86 162/80/85
f 123/197/181 419/196/180 420/212/189 134/213/190
f 39/38/47 50/41/50 140/152/147 141/151/146
f 127/203/184 202/202/53 204/214/35 138/198/182
f 124/205/185 123/197/181 134/213/190 135/207/186
f 134/213/190 420/212/189 145/56/64 13/31/40
f 72/131/129 192/130/31 194/154/34 83/153/148
f 126/45/54 163/215/85 161/210/72 137/27/36
f 135/207/186 134/213/190 13/31/40 146/30/39
f 197/134/132 93/133/131 104/175/168 199/216/44
f 138/198/182 204/214/35 159/217/38 16/199/183
f 136/65/73 135/207/186 146/30/39 14/42/51
f 199/216/44 104/175/168 115/192/172 201/218/45
f 187/55/48 38/54/63 49/83/87 189/82/49
f 115/182/172 165/219/179 163/215/85 126/45/54
f 149/220/191 32/221/192 40/222/192 147/223/191
f 182/66/193 181/69/194 150/224/194 228/225/193
f 202/202/195 200/201/196 216/226/196 220/227/195
f 183/67/197 161/210/198 155/228/198 226/229/197
f 178/99/199 176/125/200 149/220/200 33/230/199
f 184/77/201 159/217/202 154/231/202 208/232/201
f 201/181/203 203/44/204 218/233/204 214/234/203
f 168/186/205 166/187/206 19/235/206 152/236/205
f 194/154/207 192/130/208 225/237/208 229/238/207
f 179/97/209 180/68/210 153/239/210 31/240/209
f 228/225/211 150/224/212 153/239/212 226/229/211
f 158/29/213 185/52/214 207/241/214 157/242/213
f 169/147/215 171/141/216 22/243/216 151/244/215
f 153/239/212 150/224/212 33/230/217 31/240/217
f 193/22/218 195/25/219 227/245/219 223/246/218
f 160/64/220 182/66/193 228/225/193 156/247/220
f 186/39/221 184/77/201 208/232/201 213/248/221
f 204/214/222 202/202/195 220/227/195 224/249/222
f 161/210/198 163/215/223 41/250/223 155/228/198
f 181/69/194 178/99/199 33/230/199 150/224/194
f 185/52/214 187/55/224 211/251/224 207/241/214
f 203/44/204 205/26/225 222/252/225 218/233/204
f 170/176/226 168/186/205 152/236/205 30/253/226
f 196/155/227 194/154/207 229/238/207 209/254/227
f 171/141/216 173/124/228 21/255/228 22/243/216
f 16/199/183 159/217/38 184/77/61 28/76/82
f 225/237/229 223/246/229 227/245/230 229/238/230
f 195/25/219 197/134/231 206/256/231 227/245/219
f 216/226/232 214/234/232 218/233/233 220/227/233
f 220/227/233 218/233/233 222/252/234 224/249/234
f 213/248/235 211/251/235 215/257/236 217/258/236
f 228/225/211 226/229/211 155/228/237 156/247/237
f 154/231/238 157/242/238 207/241/239 208/232/239
f 41/250/240 148/259/240 156/247/237 155/228/237
f 217/258/236 215/257/236 219/260/241 221/261/241
f 149/220/191 147/223/191 31/240/217 33/230/217
f 212/262/242 210/263/242 214/264/232 216/265/232
f 224/249/234 222/252/234 157/242/238 154/231/238
f 191/50/243 193/22/218 223/246/218 219/260/243
f 151/244/244 152/236/244 19/235/245 17/266/245
f 208/232/239 207/241/239 211/251/235 213/248/235
f 30/253/246 152/236/244 151/244/244 22/243/246
f 221/261/241 219/260/241 223/246/229 225/237/229
f 30/253/246 22/243/246 21/255/247 29/267/247
f 20/268/248 148/259/240 41/250/240 18/269/248
f 20/270/248 18/271/248 17/266/245 19/235/245
f 229/238/230 227/245/230 206/256/249 209/254/249
f 40/222/192 32/221/192 29/267/247 21/255/247
f 209/254/249 206/256/249 210/263/242 212/262/242
f 189/82/250 191/50/243 219/260/243 215/257/250
f 174/103/251 177/98/252 147/223/252 40/222/251
f 188/40/253 186/39/221 213/248/221 217/258/253
f 175/142/254 172/148/255 29/267/255 32/221/254
f 159/217/202 204/214/222 224/249/222 154/231/202
f 200/36/196 198/35/256 212/262/256 216/265/196
f 163/215/223 165/219/257 18/269/257 41/250/223
f 176/125/200 175/142/254 32/221/254 149/220/200
f 187/55/224 189/82/250 215/257/250 211/251/224
f 199/216/258 201/218/203 214/264/203 210/263/258
f 172/148/255 170/176/226 30/253/226 29/267/255
f 166/187/206 164/193/259 20/270/259 19/235/206
f 198/35/256 196/155/227 209/254/227 212/262/256
f 192/130/208 190/108/260 221/261/260 225/237/208
f 205/26/225 158/29/213 157/242/213 222/252/225
f 180/68/210 183/67/197 226/229/197 153/239/210
f 173/124/228 174/103/251 40/222/251 21/255/228
f 177/98/252 179/97/209 31/240/209 147/223/252
f 197/134/231 199/216/258 210/263/258 206/256/231
f 167/174/261 169/147/215 151/244/215 17/266/261
f 164/211/259 162/80/262 148/259/262 20/268/259
f 162/80/262 160/64/220 156/247/220 148/259/262
f 190/108/260 188/40/253 217/258/253 221/261/260
f 165/191/257 167/174/261 17/266/261 18/271/257
f 43/107/110 44/75/81 232/272/263 231/273/264
f 62/89/93 63/88/92 239/274/265 238/275/266
f 65/63/71 42/62/70 230/276/267 241/277/268
f 64/79/84 65/63/71 241/277/268 240/278/269
f 44/75/81 51/74/80 233/279/270 232/272/263
f 53/102/105 54/96/100 236/280/271 235/281/272
f 51/74/80 52/94/98 234/282/273 233/279/270
f 55/91/95 62/89/93 238/275/266 237/283/274
f 52/94/98 53/102/105 235/281/272 234/282/273
f 42/62/70 43/107/110 231/273/264 230/276/267
f 63/112/92 64/79/84 240/278/269 239/284/265
f 54/96/100 55/91/95 237/283/274 236/280/271
f 238/275/275 239/274/275 247/285/275 248/286/275
f 234/282/275 235/281/275 243/287/275 252/288/275
f 236/280/275 237/283/275 246/289/275 242/290/275
f 232/272/275 233/279/275 253/291/275 251/292/275
f 230/276/275 231/273/275 244/293/275 245/294/275
f 233/279/275 234/282/275 252/288/275 253/291/275
f 242/290/116 246/289/56 258/295/56 254/296/116
f 251/292/276 253/291/277 265/297/277 263/298/276
f 250/299/278 249/300/187 261/301/187 262/302/278
f 248/286/279 247/285/280 259/303/280 260/304/279
f 252/288/281 243/287/156 255/305/156 264/306/281
f 243/287/156 242/290/116 254/296/116 255/305/156
f 244/293/162 251/292/276 263/298/276 256/307/162
f 249/300/187 245/294/163 257/308/163 261/301/187
f 247/309/280 250/299/278 262/302/278 259/310/280
f 245/294/163 244/293/162 256/307/162 257/308/163
f 253/291/277 252/288/281 264/306/281 265/297/277
f 246/289/56 248/286/279 260/304/279 258/295/56
f 239/284/275 240/278/275 250/299/275 247/309/275
f 241/277/275 230/276/275 245/294/275 249/300/275
f 237/283/275 238/275/275 248/286/275 246/289/275
f 240/278/275 241/277/275 249/300/275 250/299/275
f 231/273/275 232/272/275 251/292/275 244/293/275
f 235/281/275 236/280/275 242/290/275 243/287/275
f 262/302/282 261/301/282 273/311/282 274/312/282
f 260/304/282 259/303/282 271/313/282 272/314/282
f 264/306/282 255/305/282 267/315/282 276/316/282
f 255/305/282 254/296/282 266/317/282 267/315/282
f 256/307/282 263/298/282 275/318/282 268/319/282
f 261/301/282 257/308/282 269/320/282 273/311/282
f 259/310/282 262/302/282 274/312/282 271/321/282
f 257/308/282 256/307/282 268/319/282 269/320/282
f 265/297/282 264/306/282 276/316/282 277/322/282
f 258/295/282 260/304/282 272/314/282 270/323/282
f 254/296/282 258/295/282 270/323/282 266/317/282
f 263/298/282 265/297/282 277/322/282 275/318/282
f 266/317/283 278/324/284 279/325/285 267/315/286
f 275/318/287 287/326/288 280/327/289 268/319/290
f 269/320/291 281/328/292 285/329/293 273/311/294
f 274/312/295 286/330/296 283/331/297 271/321/298
f 268/319/290 280/327/289 281/328/292 269/320/291
f 276/316/299 288/332/300 289/333/301 277/322/302
f 272/314/303 284/334/304 282/335/305 270/323/306
f 270/323/306 282/335/305 278/324/284 266/317/283
f 277/322/302 289/333/301 287/326/288 275/318/287
f 273/311/294 285/329/293 286/330/296 274/312/295
f 271/313/298 283/336/297 284/334/304 272/314/303
f 267/315/286 279/325/285 288/332/300 276/316/299
f 286/330/296 285/329/293 297/337/307 298/338/308
f 284/334/304 283/336/297 295/339/309 296/340/310
f 288/332/300 279/325/285 291/341/311 300/342/312
f 279/325/285 278/324/284 290/343/313 291/341/311
f 280/327/289 287/326/288 299/344/314 292/345/315
f 285/329/293 281/328/292 293/346/316 297/337/307
f 283/331/297 286/330/296 298/338/308 295/347/309
f 281/328/292 280/327/289 292/345/315 293/346/316
f 289/333/301 288/332/300 300/342/312 301/348/317
f 282/335/305 284/334/304 296/340/310 294/349/318
f 278/324/284 282/335/305 294/349/318 290/343/313
f 287/326/288 289/333/301 301/348/317 299/344/314
f 299/344/314 301/348/317 313/350/319 311/351/320
f 298/338/308 297/337/307 309/352/321 310/353/322
f 296/340/310 295/339/309 307/354/323 308/355/324
f 300/342/312 291/341/311 303/356/325 312/357/326
f 291/341/311 290/343/313 302/358/327 303/356/325
f 292/345/315 299/344/314 311/351/320 304/359/328
f 297/337/307 293/346/316 305/360/329 309/352/321
f 295/347/309 298/338/308 310/353/322 307/361/323
f 293/346/316 292/345/315 304/359/328 305/360/329
f 301/348/317 300/342/312 312/357/326 313/350/319
f 294/349/318 296/340/310 308/355/324 306/362/330
f 290/343/313 294/349/318 306/362/330 302/358/327
f 302/358/327 306/362/330 318/363/331 314/364/332
f 311/351/320 313/350/319 325/365/333 323/366/334
f 310/353/322 309/352/321 321/367/335 322/368/336
f 308/355/324 307/354/323 319/369/337 320/370/338
f 312/357/326 303/356/325 315/371/339 324/372/340
f 303/356/325 302/358/327 314/364/332 315/371/339
f 304/359/328 311/351/320 323/366/334 316/373/341
f 309/352/321 305/360/329 317/374/342 321/367/335
f 307/361/323 310/353/322 322/368/336 319/375/337
f 305/360/329 304/359/328 316/373/341 317/374/342
f 313/350/319 312/357/326 324/372/340 325/365/333
f 306/362/330 308/355/324 320/370/338 318/363/331
f 314/364/332 318/363/331 330/376/343 326/377/344
f 323/366/334 325/365/333 337/378/345 335/379/346
f 322/368/336 321/367/335 333/380/347 334/381/348
f 320/370/338 319/369/337 331/382/349 332/383/350
f 324/372/340 315/371/339 327/384/351 336/385/352
f 315/371/339 314/364/332 326/377/344 327/384/351
f 316/373/341 323/366/334 335/379/346 328/386/353
f 321/367/335 317/374/342 329/387/354 333/380/347
f 319/375/337 322/368/336 334/381/348 331/388/349
f 317/374/342 316/373/341 328/386/353 329/387/354
f 325/365/333 324/372/340 336/385/352 337/378/345
f 318/363/331 320/370/338 332/383/350 330/376/343
f 330/376/343 332/383/350 344/389/355 342/390/356
f 326/377/344 330/376/343 342/390/356 338/391/357
f 335/379/346 337/378/345 349/392/358 347/393/359
f 334/381/348 333/380/347 345/394/360 346/395/361
f 332/383/350 331/382/349 343/396/362 344/389/355
f 336/385/352 327/384/351 339/397/363 348/398/364
f 327/384/351 326/377/344 338/391/357 339/397/363
f 328/386/353 335/379/346 347/393/359 340/399/365
f 333/380/347 329/387/354 341/400/366 345/394/360
f 331/388/349 334/381/348 346/395/361 343/401/362
f 329/387/354 328/386/353 340/399/365 341/400/366
f 337/378/345 336/385/352 348/398/364 349/392/358
f 342/390/356 344/389/355 356/402/367 354/403/368
f 338/391/357 342/390/356 354/403/368 350/404/369
f 347/393/359 349/392/358 361/405/370 359/406/371
f 346/395/361 345/394/360 357/407/372 358/408/373
f 344/389/355 343/396/362 355/409/374 356/402/367
f 348/398/364 339/397/363 351/410/375 360/411/376
f 339/397/363 338/391/357 350/404/369 351/410/375
f 340/399/365 347/393/359 359/406/371 352/412/377
f 345/394/360 341/400/366 353/413/378 357/407/372
f 343/401/362 346/395/361 358/408/373 355/414/374
f 341/400/366 340/399/365 352/412/377 353/413/378
f 349/392/358 348/398/364 360/411/376 361/405/370
f 361/405/370 360/411/376 372/415/379 373/416/380
f 354/403/368 356/402/367 368/417/381 366/418/382
f 350/404/369 354/403/368 366/418/382 362/419/383
f 359/406/371 361/405/370 373/416/380 371/420/384
f 358/408/373 357/407/372 369/421/385 370/422/386
f 356/402/367 355/409/374 367/423/387 368/417/381
f 360/411/376 351/410/375 363/424/388 372/415/379
f 351/410/375 350/404/369 362/419/383 363/424/388
f 352/412/377 359/406/371 371/420/384 364/425/389
f 357/407/372 353/413/378 365/426/390 369/421/385
f 355/414/374 358/408/373 370/422/386 367/427/387
f 353/413/378 352/412/377 364/425/389 365/426/390
f 365/426/390 364/425/389 376/428/391 377/429/392
f 373/416/380 372/415/379 384/430/393 385/431/394
f 366/418/382 368/417/381 380/432/395 378/433/396
f 362/419/383 366/418/382 378/433/396 374/434/397
f 371/420/384 373/416/380 385/431/394 383/435/398
f 370/422/386 369/421/385 381/436/399 382/437/400
f 368/417/381 367/423/387 379/438/401 380/432/395
f 372/415/379 363/424/388 375/439/402 384/430/393
f 363/424/388 362/419/383 374/434/397 375/439/402
f 364/425/389 371/420/384 383/435/398 376/428/391
f 369/421/385 365/426/390 377/429/392 381/436/399
f 367/427/387 370/422/386 382/437/400 379/440/401
f 379/440/401 382/437/400 394/441/403 391/442/404
f 377/429/392 376/428/391 388/443/405 389/444/406
f 385/431/394 384/430/393 396/445/407 397/446/408
f 378/433/396 380/432/395 392/447/409 390/448/410
f 374/434/397 378/433/396 390/448/410 386/449/411
f 383/435/398 385/431/394 397/446/408 395/450/412
f 382/437/400 381/436/399 393/451/413 394/441/403
f 380/432/395 379/438/401 391/452/404 392/447/409
f 384/430/393 375/439/402 387/453/414 396/445/407
f 375/439/402 374/434/397 386/449/411 387/453/414
f 376/428/391 383/435/398 395/450/412 388/443/405
f 381/436/399 377/429/392 389/444/406 393/451/413
f 393/451/413 389/444/406 425/454/415 429/455/416
f 391/442/404 394/441/403 430/456/417 427/457/418
f 389/444/406 388/443/405 424/458/419 425/454/415
f 397/446/408 396/445/407 432/459/420 433/460/421
f 390/448/410 392/447/409 428/461/422 426/462/423
f 386/449/411 390/448/410 426/462/423 422/463/424
f 395/450/412 397/446/408 433/460/421 431/464/425
f 394/441/403 393/451/413 429/455/416 430/456/417
f 392/447/409 391/452/404 427/465/418 428/461/422
f 396/445/407 387/453/414 423/466/426 432/459/420
f 387/453/414 386/449/411 422/463/424 423/466/426
f 388/443/405 395/450/412 431/464/425 424/458/419
f 474/467/427 437/468/428 438/190/178 473/469/429
f 23/169/430 34/470/431 410/70/76 411/57/65
f 34/470/431 45/471/432 412/100/103 410/70/76
f 45/471/432 56/189/433 413/104/107 412/100/103
f 56/189/433 67/163/434 414/126/125 413/104/107
f 67/163/434 78/116/435 415/143/140 414/126/125
f 78/116/435 89/47/436 416/149/144 415/143/140
f 89/47/436 100/46/437 417/177/169 416/149/144
f 100/46/437 111/472/438 418/188/176 417/177/169
f 111/473/438 122/474/439 419/196/180 418/195/176
f 122/474/439 133/208/440 420/212/189 419/196/180
f 133/208/440 421/170/441 145/56/64 420/212/189
f 421/170/441 23/169/430 411/57/65 145/56/64
f 398/475/282 399/476/282 423/466/426 422/463/424
f 400/477/282 401/478/282 425/454/415 424/458/419
f 402/479/282 398/475/282 422/463/424 426/462/423
f 403/480/282 404/481/282 428/461/422 427/465/418
f 401/478/282 405/482/282 429/455/416 425/454/415
f 404/481/282 402/479/282 426/462/423 428/461/422
f 405/482/282 406/483/282 430/456/417 429/455/416
f 407/484/282 400/477/282 424/458/419 431/464/425
f 408/485/282 409/486/282 433/460/421 432/459/420
f 409/486/282 407/484/282 431/464/425 433/460/421
f 399/476/282 408/485/282 432/459/420 423/466/426
f 406/483/282 403/480/282 427/465/418 430/456/417
f 441/48/57 440/117/117 452/487/442 453/488/443
f 440/117/117 439/164/157 451/489/444 452/487/442
f 435/172/165 434/171/164 446/490/445 447/491/446
f 439/164/157 438/190/178 450/492/447 451/489/444
f 434/171/164 445/209/188 457/493/448 446/490/445
f 438/190/178 437/468/428 449/494/449 450/492/447
f 445/209/188 444/495/450 456/496/451 457/493/448
f 437/468/428 436/497/452 448/498/453 449/494/449
f 443/499/454 475/500/455 478/18/456 442/49/58
f 34/470/457 23/169/162 435/172/165 436/497/452
f 443/499/454 444/495/450 476/20/458 475/500/455
f 474/467/427 472/501/459 436/497/452 437/468/428
f 133/208/187 122/474/460 444/495/450 445/209/188
f 144/502/461 468/503/462 467/504/463 466/505/464 
f 465/506/465 464/507/466 463/508/467 462/509/468 
f 461/510/469 460/511/470 459/512/471 458/513/472
f 454/514/473 453/488/443 464/507/466 465/506/465
f 457/493/448 456/496/451 467/504/463 468/503/462
f 450/492/447 449/494/449 460/511/470 461/510/469
f 453/488/443 452/487/442 463/508/467 464/507/466
f 456/496/451 455/515/474 466/505/464 467/504/463
f 449/494/449 448/498/453 459/512/471 460/511/470
f 447/491/446 446/490/445 144/502/461 458/513/472
f 452/487/442 451/489/444 462/509/468 463/508/467
f 455/516/474 454/514/473 465/506/465 466/517/464
f 448/498/453 447/491/446 458/513/472 459/512/471
f 446/490/445 457/493/448 468/503/462 144/502/461
f 451/489/444 450/492/447 461/510/469 462/509/468
f 442/49/58 441/48/57 453/488/443 454/514/473
f 443/518/454 442/49/58 454/514/473 455/516/474
f 436/497/452 435/172/165 447/491/446 448/498/453
f 444/495/450 443/499/454 455/515/474 456/496/451
f 402/519/282 404/520/282 403/521/282 406/522/282 
f 405/523/282 401/524/282 400/525/282 407/526/282 
f 409/527/282 408/528/282 399/529/282 398/530/282
f 472/501/475 4/11/18 5/13/17 471/531/475
f 469/532/476 6/2/2 1/1/1 470/533/476
f 474/467/477 3/9/14 4/11/13 472/501/477
f 470/534/478 1/6/6 2/5/5 473/469/478
f 471/531/479 5/13/22 6/2/21 469/532/479
f 473/469/480 2/5/10 3/9/9 474/467/480
f 56/189/177 470/534/481 473/469/429 438/190/178
f 45/471/482 469/535/482 470/533/481 56/189/177
f 436/497/452 472/501/459 471/531/483 34/470/457
f 34/470/457 471/531/483 469/532/482 45/471/482
f 442/49/58 478/18/456 479/17/484 100/46/55
f 100/46/55 479/17/484 480/15/485 111/473/485
f 122/474/460 477/21/486 476/20/458 444/495/450
f 122/474/460 111/473/485 480/15/485 477/21/486

v 0.000000 0.556308 0.050321
v 0.025160 0.556308 0.043579
v 0.025161 0.556308 -0.043579
v 0.000000 0.556308 -0.050321
v -0.025160 0.556308 0.043579
v -0.050321 0.556308 -0.000000
v -0.043579 0.556308 0.025160
v -0.025160 0.556308 -0.043579
v -0.043579 0.556308 -0.025161
v 0.043579 0.556308 -0.025161
v 0.043579 0.556308 0.025160
v 0.050321 0.556308 -0.000000
v 0.000000 -0.635028 0.050321
v 0.025160 -0.635028 0.043579
v 0.025161 -0.635028 -0.043579
v 0.000000 -0.635028 -0.050321
v -0.050321 -0.635028 -0.000000
v -0.025160 -0.635028 -0.043579
v -0.043579 -0.635028 -0.025161
v 0.050321 -0.635028 -0.000000
v 0.000000 -0.654443 -0.097213
v 0.000000 -0.725608 -0.168378
v 0.000000 -0.772500 -0.187801
v 0.000000 -0.822821 -0.194426
v 0.000000 -0.873142 -0.187801
v 0.000000 -0.920033 -0.168378
v 0.000000 -0.960300 -0.137480
v 0.000000 -0.991198 -0.097213
v 0.000000 -1.010621 -0.050321
v 0.000000 -1.017246 -0.000000
v 0.048606 -0.654443 -0.084189
v 0.068740 -0.685341 -0.119061
v 0.084189 -0.725608 -0.145820
v 0.093900 -0.772500 -0.162641
v 0.097213 -0.822821 -0.168378
v 0.093900 -0.873142 -0.162641
v 0.084189 -0.920033 -0.145820
v 0.068740 -0.960300 -0.119061
v 0.048606 -0.991198 -0.084189
v 0.025161 -1.010621 -0.043580
v 0.043579 -0.635020 -0.025161
v 0.084189 -0.654443 -0.048607
v 0.119061 -0.685341 -0.068740
v 0.145819 -0.725608 -0.084189
v 0.162640 -0.772500 -0.093901
v 0.168378 -0.822821 -0.097213
v 0.162640 -0.873142 -0.093901
v 0.145819 -0.920033 -0.084189
v 0.119061 -0.960300 -0.068740
v 0.084189 -0.991198 -0.048607
v 0.043579 -1.010621 -0.025161
v 0.097213 -0.654443 -0.000000
v 0.137480 -0.685341 -0.000000
v 0.168378 -0.725608 -0.000000
v 0.187801 -0.772500 -0.000000
v 0.194426 -0.822821 -0.000000
v 0.187801 -0.873142 -0.000000
v 0.168378 -0.920033 -0.000000
v 0.137480 -0.960300 -0.000000
v 0.097213 -0.991198 -0.000000
v 0.050321 -1.010621 -0.000000
v 0.043579 -0.635020 0.025160
v 0.084189 -0.654443 0.048606
v 0.119061 -0.685341 0.068739
v 0.145819 -0.725608 0.084188
v 0.162640 -0.772500 0.093900
v 0.168378 -0.822821 0.097212
v 0.162640 -0.873142 0.093900
v 0.145819 -0.920033 0.084188
v 0.119061 -0.960300 0.068739
v 0.084189 -0.991198 0.048606
v 0.043579 -1.010621 0.025160
v 0.048606 -0.654443 0.084188
v 0.068740 -0.685341 0.119060
v 0.084189 -0.725608 0.145819
v 0.093900 -0.772500 0.162640
v 0.097213 -0.822821 0.168377
v 0.093900 -0.873142 0.162640
v 0.084189 -0.920033 0.145819
v 0.068740 -0.960300 0.119060
v 0.048606 -0.991198 0.084188
v 0.025161 -1.010621 0.043579
v 0.000000 -0.654443 0.097212
v -0.000000 -0.685341 0.137479
v 0.000000 -0.725608 0.168377
v 0.000000 -0.772500 0.187800
v -0.000000 -0.822821 0.194425
v 0.000000 -0.873142 0.187800
v 0.000000 -0.920033 0.168377
v 0.000000 -0.960300 0.137479
v 0.000000 -0.991198 0.097212
v 0.000000 -1.010621 0.050321
v -0.025160 -0.635020 0.043579
v -0.048606 -0.654443 0.084188
v -0.068740 -0.685341 0.119060
v -0.084189 -0.725608 0.145819
v -0.093900 -0.772500 0.162640
v -0.097213 -0.822821 0.168377
v -0.093900 -0.873142 0.162640
v -0.084189 -0.920033 0.145819
v -0.068740 -0.960300 0.119060
v -0.048606 -0.991198 0.084188
v -0.025161 -1.010621 0.043579
v -0.043579 -0.635020 0.025160
v -0.084189 -0.654443 0.048606
v -0.119061 -0.685341 0.068739
v -0.145819 -0.725608 0.084188
v -0.162640 -0.772500 0.093900
v -0.168377 -0.822821 0.097212
v -0.162640 -0.873142 0.093900
v -0.145819 -0.920033 0.084188
v -0.119061 -0.960300 0.068739
v -0.084189 -0.991198 0.048606
v -0.043579 -1.010621 0.025160
v -0.097213 -0.654443 -0.000000
v -0.137480 -0.685341 -0.000000
v -0.168377 -0.725608 -0.000000
v -0.187801 -0.772500 -0.000000
v -0.194426 -0.822821 -0.000000
v -0.187801 -0.873142 -0.000000
v -0.168377 -0.920033 -0.000000
v -0.137480 -0.960300 -0.000000
v -0.097213 -0.991198 -0.000000
v -0.050321 -1.010621 -0.000000
v -0.084189 -0.654443 -0.048607
v -0.119061 -0.685341 -0.068740
v -0.145819 -0.725608 -0.084189
v -0.162640 -0.772500 -0.093901
v -0.168377 -0.822821 -0.097213
v -0.162640 -0.873142 -0.093901
v -0.145819 -0.920033 -0.084189
v -0.119061 -0.960300 -0.068740
v -0.084189 -0.991198 -0.048607
v -0.043579 -1.010621 -0.025161
v -0.048606 -0.654443 -0.084189
v -0.068740 -0.685341 -0.119061
v -0.084189 -0.725608 -0.145820
v -0.093900 -0.772500 -0.162641
v -0.097213 -0.822821 -0.168378
v -0.093900 -0.873142 -0.162641
v -0.084189 -0.920033 -0.145820
v -0.068740 -0.960300 -0.119061
v -0.048606 -0.991198 -0.084189
v -0.025161 -1.010621 -0.043580
v 0.000000 -0.685341 -0.137480
vt 0.000000 0.000000
vt 0.000000 0.000000
vt 0.000000 0.000000
vt 0.000000 0.000000
vt 0.000000 0.000000
vt 0.000000 0.000000
vt 0.000000 0.000000
vt 0.000000 0.000000
vt 0.000000 0.000000
vt 0.000000 0.000000
vt 0.000000 0.000000
vt 0.000000 0.000000
vt 0.000000 0.000000
vt 0.000000 0.000000
vt 0.000000 0.000000
vt 0.000000 0.000000
vt 0.000000 0.000000
vt 0.000000 0.000000
vt 0.000000 0.000000
vt 0.000000 0.000000
vt 0.000000 0.000000
vt 0.000000 0.000000
vt 0.000000 0.000000
vt 0.000000 0.000000
vt 0.750000 0.666667
vt 0.750000 0.750000
vt 0.666667 0.750000
vt 0.666667 0.666667
vt 0.750000 0.083333
vt 0.750000 0.166667
vt 0.666667 0.166667
vt 0.666667 0.083333
vt 0.750000 0.333333
vt 0.750000 0.416667
vt 0.666667 0.416667
vt 0.666667 0.333333
vt 0.750000 0.583333
vt 0.666667 0.583333
vt 0.708333 0.000000
vt 0.750000 0.833333
vt 0.750000 0.916667
vt 0.666667 0.916667
vt 0.666667 0.833333
vt 0.750000 0.250000
vt 0.666667 0.250000
vt 0.750000 0.500000
vt 0.666667 0.500000
vt 0.583333 0.333333
vt 0.583333 0.250000
vt 0.583333 0.583333
vt 0.583333 0.500000
vt 0.583333 0.833333
vt 0.583333 0.750000
vt 0.583333 0.166667
vt 0.583333 0.416667
vt 0.583333 0.666667
vt 0.583334 0.083333
vt 0.625000 0.000000
vt 0.583334 0.916667
vt 0.500000 0.416667
vt 0.500000 0.333333
vt 0.500000 0.666667
vt 0.500000 0.583333
vt 0.541667 0.000000
vt 0.500000 0.083333
vt 0.500000 0.916667
vt 0.500000 0.833333
vt 0.500000 0.250000
vt 0.500000 0.500000
vt 0.500000 0.750000
vt 0.500000 0.166667
vt 0.416667 0.250000
vt 0.416667 0.166667
vt 0.416667 0.500000
vt 0.416667 0.416667
vt 0.416667 0.750000
vt 0.416667 0.666667
vt 0.416667 0.083333
vt 0.416667 0.333333
vt 0.416667 0.583333
vt 0.458334 0.000000
vt 0.416667 0.916667
vt 0.416667 0.833333
vt 0.333333 0.916667
vt 0.333333 0.833334
vt 0.333333 0.333333
vt 0.333333 0.250000
vt 0.333333 0.583333
vt 0.333333 0.500000
vt 0.333333 0.750000
vt 0.333333 0.166667
vt 0.333333 0.416667
vt 0.333333 0.666667
vt 0.333333 0.083333
vt 0.375000 0.000000
vt 0.250000 0.166666
vt 0.250000 0.083333
vt 0.250000 0.416667
vt 0.250000 0.333333
vt 0.250000 0.666667
vt 0.250000 0.583333
vt 0.291667 0.000000
vt 0.250000 0.916667
vt 0.250000 0.833334
vt 0.250000 0.250000
vt 0.250000 0.500000
vt 0.250000 0.750000
vt 0.166667 0.833334
vt 0.166667 0.750000
vt 0.166667 0.250000
vt 0.166667 0.166667
vt 0.166667 0.500000
vt 0.166667 0.416667
vt 0.166667 0.666667
vt 0.166667 0.083333
vt 0.166667 0.333333
vt 0.166667 0.583333
vt 0.208333 0.000000
vt 0.166667 0.916667
vt 0.125000 0.000000
vt 0.083333 0.083333
vt 0.083333 0.916667
vt 0.083333 0.833333
vt 0.083333 0.333333
vt 0.083333 0.250000
vt 0.083333 0.583333
vt 0.083333 0.500000
vt 0.083333 0.750000
vt 0.083333 0.166667
vt 0.083333 0.416667
vt 0.083333 0.666667
vt 0.000000 0.750000
vt 0.000000 0.666667
vt 0.000000 0.166667
vt 0.000000 0.083333
vt 0.000000 0.416667
vt 0.000000 0.333333
vt 0.000000 0.583333
vt 0.041666 0.000000
vt 0.000000 0.916667
vt 0.000000 0.833333
vt 0.000000 0.250000
vt 0.000000 0.500000
vt 1.000000 0.750000
vt 1.000000 0.833333
vt 0.916667 0.833333
vt 0.916667 0.750000
vt 1.000000 0.166667
vt 1.000000 0.250000
vt 0.916667 0.250000
vt 0.916667 0.166667
vt 1.000000 0.416667
vt 1.000000 0.500000
vt 0.916667 0.500000
vt 0.916667 0.416667
vt 1.000000 0.666667
vt 0.916667 0.666667
vt 1.000000 0.083333
vt 0.916666 0.083333
vt 1.000000 0.333333
vt 0.916667 0.333333
vt 1.000000 0.583333
vt 0.916667 0.583333
vt 0.958333 0.000000
vt 1.000000 0.916667
vt 0.916666 0.916667
vt 0.833333 0.666667
vt 0.833333 0.583333
vt 0.875000 0.000000
vt 0.833333 0.083333
vt 0.833333 0.916667
vt 0.833333 0.833333
vt 0.833333 0.333333
vt 0.833333 0.250000
vt 0.833333 0.500000
vt 0.833333 0.750000
vt 0.833333 0.166667
vt 0.833333 0.416667
vt 0.791667 0.000000
vn 0.0000 1.0000 0.0000
vn 0.0000 -1.0000 0.0000
vn -0.5000 -0.0000 0.8660
vn -0.8660 -0.0000 0.5000
vn -0.0000 -0.0000 1.0000
vn 0.8660 0.0000 -0.5000
vn 1.0000 0.0000 0.0000
vn -0.8660 0.0000 -0.5000
vn -0.5000 0.0000 -0.8660
vn -1.0000 -0.0000 0.0000
vn 0.8660 -0.0000 0.5000
vn 0.5000 -0.0000 0.8660
vn 0.5000 0.0000 -0.8660
vn -0.0000 0.0000 -1.0000
vn -0.0000 0.4909 -0.8712
vn 0.0000 0.6965 -0.7176
vn 0.3588 0.6965 -0.6215
vn 0.4356 0.4909 -0.7545
vn -0.0000 -0.9603 -0.2789
vn -0.0000 -0.8566 -0.5159
vn 0.2580 -0.8566 -0.4468
vn 0.1394 -0.9603 -0.2415
vn -0.0000 -0.4909 -0.8712
vn -0.0000 -0.2536 -0.9673
vn 0.4837 -0.2536 -0.8377
vn 0.4356 -0.4909 -0.7545
vn -0.0000 0.2536 -0.9673
vn 0.4837 0.2536 -0.8377
vn -0.0000 0.8567 -0.5159
vn -0.0000 0.9239 -0.3825
vn 0.1913 0.9239 -0.3313
vn 0.2579 0.8567 -0.4468
vn -0.0000 -0.6965 -0.7176
vn 0.3588 -0.6965 -0.6215
vn 0.7545 -0.4909 -0.4356
vn 0.6215 -0.6965 -0.3588
vn 0.8377 0.2536 -0.4837
vn 0.4468 0.8567 -0.2579
vn 0.6215 0.6965 -0.3588
vn 0.4468 -0.8566 -0.2580
vn 0.8377 -0.2536 -0.4837
vn 0.7545 0.4909 -0.4356
vn 0.2415 -0.9603 -0.1394
vn 0.3313 0.9239 -0.1913
vn 0.9673 -0.2536 0.0000
vn 0.8712 -0.4909 -0.0000
vn 0.8712 0.4909 0.0000
vn 0.9673 0.2536 0.0000
vn 0.2789 -0.9603 -0.0000
vn 0.3826 0.9239 0.0000
vn 0.5159 0.8566 -0.0000
vn 0.7176 -0.6965 -0.0000
vn 0.7176 0.6965 0.0000
vn 0.5159 -0.8566 0.0000
vn 0.6215 -0.6965 0.3588
vn 0.4468 -0.8566 0.2580
vn 0.8377 -0.2536 0.4837
vn 0.6215 0.6965 0.3588
vn 0.7545 0.4909 0.4356
vn 0.2415 -0.9603 0.1394
vn 0.7545 -0.4909 0.4356
vn 0.8377 0.2536 0.4837
vn 0.3313 0.9239 0.1913
vn 0.4468 0.8567 0.2579
vn 0.1913 0.9239 0.3313
vn 0.2579 0.8567 0.4468
vn 0.4356 -0.4909 0.7545
vn 0.3588 -0.6965 0.6215
vn 0.4837 0.2536 0.8377
vn 0.3588 0.6965 0.6215
vn 0.2580 -0.8566 0.4468
vn 0.4837 -0.2536 0.8377
vn 0.4356 0.4909 0.7545
vn 0.1394 -0.9603 0.2415
vn -0.0000 -0.8566 0.5159
vn -0.0000 -0.9603 0.2789
vn -0.0000 -0.2536 0.9673
vn 0.0000 -0.4909 0.8712
vn 0.0000 0.4909 0.8712
vn 0.0000 0.2536 0.9673
vn 0.0000 0.9239 0.3826
vn 0.0000 0.8567 0.5159
vn -0.0000 -0.6965 0.7176
vn -0.0000 0.6965 0.7176
vn -0.2579 0.8566 0.4468
vn -0.3588 0.6965 0.6215
vn -0.3588 -0.6965 0.6215
vn -0.2580 -0.8566 0.4468
vn -0.4837 -0.2536 0.8377
vn -0.4356 0.4909 0.7545
vn -0.1394 -0.9603 0.2415
vn -0.4356 -0.4909 0.7545
vn -0.4837 0.2536 0.8377
vn -0.1913 0.9239 0.3314
vn -0.2415 -0.9603 0.1394
vn -0.3314 0.9239 0.1913
vn -0.4468 0.8566 0.2579
vn -0.7545 -0.4909 0.4356
vn -0.6215 -0.6965 0.3588
vn -0.8377 0.2536 0.4837
vn -0.6215 0.6965 0.3588
vn -0.4468 -0.8566 0.2580
vn -0.8377 -0.2536 0.4837
vn -0.7545 0.4909 0.4356
vn -0.7176 0.6965 -0.0000
vn -0.8712 0.4909 -0.0000
vn -0.5159 -0.8566 -0.0000
vn -0.2789 -0.9603 0.0000
vn -0.9673 -0.2536 -0.0000
vn -0.8712 -0.4909 -0.0000
vn -0.9673 0.2536 -0.0000
vn -0.3826 0.9239 -0.0000
vn -0.5159 0.8567 -0.0000
vn -0.7176 -0.6965 0.0000
vn -0.4468 0.8567 -0.2579
vn -0.6215 0.6965 -0.3588
vn -0.6215 -0.6965 -0.3588
vn -0.4468 -0.8566 -0.2580
vn -0.8377 -0.2536 -0.4837
vn -0.7545 0.4909 -0.4356
vn -0.2415 -0.9603 -0.1394
vn -0.7545 -0.4909 -0.4356
vn -0.8377 0.2536 -0.4837
vn -0.3313 0.9239 -0.1913
vn -0.4356 0.4909 -0.7545
vn -0.4837 0.2536 -0.8377
vn -0.1394 -0.9603 -0.2415
vn -0.1913 0.9239 -0.3313
vn -0.2579 0.8567 -0.4468
vn -0.4356 -0.4909 -0.7545
vn -0.3588 -0.6965 -0.6215
vn -0.3588 0.6965 -0.6215
vn -0.2580 -0.8566 -0.4468
vn -0.4837 -0.2536 -0.8377

f 485/536/487 481/537/487 482/538/487 491/539/487 
f 492/540/487 490/541/487 483/542/487 484/543/487 
f 488/544/487 489/545/487 486/546/487 487/547/487
f 573/548/488 584/549/488 497/550/488 499/551/488 
f 498/552/488 496/553/488 495/554/488 521/555/488 
f 500/556/488 542/557/488 494/558/488 493/559/488
f 485/536/489 487/547/490 584/549/490 573/548/489
f 481/537/491 485/536/489 573/548/489 493/559/491
f 490/541/492 492/540/493 500/556/493 521/555/492
f 489/545/494 488/544/495 498/552/495 499/551/494
f 487/547/490 486/546/496 497/550/496 584/549/490
f 491/539/497 482/538/498 494/558/498 542/557/497
f 482/538/498 481/537/491 493/559/491 494/558/498
f 483/542/499 490/541/492 521/555/492 495/554/499
f 488/544/495 484/543/500 496/553/500 498/552/495
f 486/546/496 489/545/494 499/551/494 497/550/496
f 484/543/500 483/542/499 495/554/499 496/553/500
f 492/540/493 491/539/497 542/557/497 500/556/493
f 502/560/501 625/561/502 512/562/503 513/563/504
f 509/564/505 508/565/506 519/566/507 520/567/508
f 506/568/509 505/569/510 516/570/511 517/571/512
f 503/572/513 502/560/501 513/563/504 514/573/514
f 510/574/488 509/564/505 520/567/508
f 501/575/515 496/576/516 495/577/517 511/578/518
f 507/579/519 506/568/509 517/571/512 518/580/520
f 504/581/500 503/572/513 514/573/514 515/582/499
f 625/561/502 501/575/515 511/578/518 512/562/503
f 508/565/506 507/579/519 518/580/520 519/566/507
f 505/569/510 504/581/500 515/582/499 516/570/511
f 518/580/520 517/571/512 528/583/521 529/584/522
f 515/582/499 514/573/514 525/585/523 526/586/492
f 512/562/503 511/578/518 522/587/524 523/588/525
f 519/566/507 518/580/520 529/584/522 530/589/526
f 516/570/511 515/582/499 526/586/492 527/590/527
f 513/563/504 512/562/503 523/588/525 524/591/528
f 520/567/508 519/566/507 530/589/526 531/592/529
f 517/571/512 516/570/511 527/590/527 528/583/521
f 514/573/514 513/563/504 524/591/528 525/585/523
f 510/593/488 520/567/508 531/592/529
f 511/578/518 495/577/517 521/594/530 522/587/524
f 528/583/521 527/590/527 537/595/531 538/596/532
f 525/585/523 524/591/528 534/597/533 535/598/534
f 510/599/488 531/592/529 541/600/535
f 522/587/524 521/594/530 500/601/536 532/602/537
f 529/584/522 528/583/521 538/596/532 539/603/538
f 526/586/492 525/585/523 535/598/534 536/604/493
f 523/588/525 522/587/524 532/602/537 533/605/539
f 530/589/526 529/584/522 539/603/538 540/606/540
f 527/590/527 526/586/492 536/604/493 537/595/531
f 524/591/528 523/588/525 533/605/539 534/597/533
f 531/592/529 530/589/526 540/606/540 541/600/535
f 540/606/540 539/603/538 550/607/541 551/608/542
f 537/595/531 536/604/493 547/609/497 548/610/543
f 534/597/533 533/605/539 544/611/544 545/612/545
f 541/600/535 540/606/540 551/608/542 552/613/546
f 538/596/532 537/595/531 548/610/543 549/614/547
f 535/598/534 534/597/533 545/612/545 546/615/548
f 510/616/488 541/600/535 552/613/546
f 532/602/537 500/601/536 542/617/549 543/618/550
f 539/603/538 538/596/532 549/614/547 550/607/541
f 536/604/493 535/598/534 546/615/548 547/609/497
f 533/605/539 532/602/537 543/618/550 544/611/544
f 543/618/550 542/617/549 494/619/551 553/620/552
f 550/607/541 549/614/547 559/621/553 560/622/554
f 547/609/497 546/615/548 556/623/555 557/624/498
f 544/611/544 543/618/550 553/620/552 554/625/556
f 551/608/542 550/607/541 560/622/554 561/626/557
f 548/610/543 547/609/497 557/624/498 558/627/558
f 545/612/545 544/611/544 554/625/556 555/628/559
f 552/613/546 551/608/542 561/626/557 562/629/560
f 549/614/547 548/610/543 558/627/558 559/621/553
f 546/615/548 545/612/545 555/628/559 556/623/555
f 510/630/488 552/613/546 562/629/560
f 562/629/560 561/626/557 571/631/561 572/632/562
f 559/621/553 558/627/558 568/633/563 569/634/564
f 556/623/555 555/628/559 565/635/565 566/636/566
f 510/637/488 562/629/560 572/632/562
f 553/620/552 494/619/551 493/638/567 563/639/568
f 560/622/554 559/621/553 569/634/564 570/640/569
f 557/624/498 556/623/555 566/636/566 567/641/491
f 554/625/556 553/620/552 563/639/568 564/642/570
f 561/626/557 560/622/554 570/640/569 571/631/561
f 558/627/558 557/624/498 567/641/491 568/633/563
f 555/628/559 554/625/556 564/642/570 565/635/565
f 564/642/570 563/639/568 574/643/571 575/644/572
f 571/631/561 570/640/569 581/645/573 582/646/574
f 568/633/563 567/641/491 578/647/489 579/648/575
f 565/635/565 564/642/570 575/644/572 576/649/576
f 572/632/562 571/631/561 582/646/574 583/650/577
f 569/634/564 568/633/563 579/648/575 580/651/578
f 566/636/566 565/635/565 576/649/576 577/652/579
f 510/653/488 572/632/562 583/650/577
f 563/639/568 493/638/567 573/654/580 574/643/571
f 570/640/569 569/634/564 580/651/578 581/645/573
f 567/641/491 566/636/566 577/652/579 578/647/489
f 510/655/488 583/650/577 594/656/581
f 574/643/571 573/654/580 584/657/582 585/658/583
f 581/645/573 580/651/578 591/659/584 592/660/585
f 578/647/489 577/652/579 588/661/586 589/662/490
f 575/644/572 574/643/571 585/658/583 586/663/587
f 582/646/574 581/645/573 592/660/585 593/664/588
f 579/648/575 578/647/489 589/662/490 590/665/589
f 576/649/576 575/644/572 586/663/587 587/666/590
f 583/650/577 582/646/574 593/664/588 594/656/581
f 580/651/578 579/648/575 590/665/589 591/659/584
f 577/652/579 576/649/576 587/666/590 588/661/586
f 587/666/590 586/663/587 596/667/591 597/668/592
f 594/656/581 593/664/588 603/669/593 604/670/594
f 591/659/584 590/665/589 600/671/595 601/672/596
f 588/661/586 587/666/590 597/668/592 598/673/597
f 510/674/488 594/656/581 604/670/594
f 585/658/583 584/657/582 497/675/598 595/676/599
f 592/660/585 591/659/584 601/672/596 602/677/600
f 589/662/490 588/661/586 598/673/597 599/678/496
f 586/663/587 585/658/583 595/676/599 596/667/591
f 593/664/588 592/660/585 602/677/600 603/669/593
f 590/665/589 589/662/490 599/678/496 600/671/595
f 596/679/591 595/680/599 605/681/601 606/682/602
f 603/683/593 602/684/600 612/685/603 613/686/604
f 600/687/595 599/688/496 609/689/494 610/690/605
f 597/691/592 596/679/591 606/682/602 607/692/606
f 604/693/594 603/683/593 613/686/604 614/694/607
f 601/695/596 600/687/595 610/690/605 611/696/608
f 598/697/597 597/691/592 607/692/606 608/698/609
f 510/699/488 604/693/594 614/694/607
f 595/680/599 497/700/598 499/701/610 605/681/601
f 602/684/600 601/695/596 611/696/608 612/685/603
f 599/688/496 598/697/597 608/698/609 609/689/494
f 608/698/609 607/692/606 617/702/611 618/703/612
f 510/704/488 614/694/607 624/705/613
f 605/681/601 499/701/610 498/706/614 615/707/615
f 612/685/603 611/696/608 621/708/616 622/709/617
f 609/689/494 608/698/609 618/703/612 619/710/495
f 606/682/602 605/681/601 615/707/615 616/711/618
f 613/686/604 612/685/603 622/709/617 623/712/619
f 610/690/605 609/689/494 619/710/495 620/713/620
f 607/692/606 606/682/602 616/711/618 617/702/611
f 614/694/607 613/686/604 623/712/619 624/705/613
f 611/696/608 610/690/605 620/713/620 621/708/616
f 617/702/611 616/711/618 625/561/502 502/560/501
f 624/705/613 623/712/619 508/565/506 509/564/505
f 621/708/616 620/713/620 505/569/510 506/568/509
f 618/703/612 617/702/611 502/560/501 503/572/513
f 510/714/488 624/705/613 509/564/505
f 615/707/615 498/706/614 496/576/516 501/575/515
f 622/709/617 621/708/616 506/568/509 507/579/519
f 619/710/495 618/703/612 503/572/513 504/581/500
f 616/711/618 615/707/615 501/575/515 625/561/502
f 623/712/619 622/709/617 507/579/519 508/565/506
f 620/713/620 619/710/495 504/581/500 505/569/510

v 0.055831 1.008533 0.016089
v 0.051022 0.990588 0.016089
v 0.048618 0.981615 -0.000000
v 0.051022 0.990588 -0.016089
v 0.055831 1.008533 -0.016089
v 0.058235 1.017505 -0.000000
v 0.152532 0.952702 0.016089
v 0.139396 0.939565 0.016089
v 0.132827 0.932997 -0.000000
v 0.139396 0.939565 -0.016089
v 0.152532 0.952702 -0.016089
v 0.159101 0.959270 -0.000000
v 0.208363 0.856000 0.016089
v 0.190418 0.851192 0.016089
v 0.181445 0.848788 -0.000000
v 0.190418 0.851192 -0.016089
v 0.208363 0.856000 -0.016089
v 0.217335 0.858405 -0.000000
v 0.208363 0.744339 0.016089
v 0.190418 0.749147 0.016089
v 0.181445 0.751552 -0.000000
v 0.190418 0.749147 -0.016089
v 0.208363 0.744339 -0.016089
v 0.217335 0.741935 -0.000000
v 0.152532 0.647638 0.016089
v 0.139395 0.660774 0.016089
v 0.132827 0.667343 -0.000000
v 0.139395 0.660774 -0.016089
v 0.152532 0.647638 -0.016089
v 0.159101 0.641069 -0.000000
v 0.055831 0.591807 0.016089
v 0.051022 0.609752 0.016089
v 0.048618 0.618725 -0.000000
v 0.051022 0.609752 -0.016089
v 0.055831 0.591807 -0.016089
v 0.058235 0.582834 -0.000000
v -0.055831 0.591807 0.016089
v -0.051022 0.609752 0.016089
v -0.048618 0.618725 -0.000000
v -0.051022 0.609752 -0.016089
v -0.055831 0.591807 -0.016089
v -0.058235 0.582834 -0.000000
v -0.152532 0.647638 0.016089
v -0.139395 0.660774 0.016089
v -0.132827 0.667343 -0.000000
v -0.139395 0.660774 -0.016089
v -0.152532 0.647638 -0.016089
v -0.159101 0.641069 -0.000000
v -0.208363 0.744339 0.016089
v -0.190418 0.749148 0.016089
v -0.181445 0.751552 -0.000000
v -0.190418 0.749148 -0.016089
v -0.208363 0.744339 -0.016089
v -0.217335 0.741935 -0.000000
v -0.208363 0.856000 0.016089
v -0.190418 0.851192 0.016089
v -0.181445 0.848788 -0.000000
v -0.190418 0.851192 -0.016089
v -0.208363 0.856000 -0.016089
v -0.217335 0.858405 -0.000000
v -0.152532 0.952702 0.016089
v -0.139395 0.939565 0.016089
v -0.132827 0.932997 -0.000000
v -0.139395 0.939565 -0.016089
v -0.152532 0.952702 -0.016089
v -0.159101 0.959270 -0.000000
v -0.055831 1.008533 0.016089
v -0.051022 0.990588 0.016089
v -0.048618 0.981615 -0.000000
v -0.051022 0.990588 -0.016089
v -0.055831 1.008533 -0.016089
v -0.058235 1.017505 -0.000000
vt 0.000000 1.000000
vt 0.083333 1.000000
vt 0.083333 0.833333
vt 0.000000 0.833333
vt 0.000000 0.166667
vt 0.083333 0.166667
vt 0.083333 0.000000
vt 0.000000 0.000000
vt 0.000000 0.333333
vt 0.083333 0.333333
vt 0.000000 0.500000
vt 0.083333 0.500000
vt 0.000000 0.666667
vt 0.083333 0.666667
vt 0.166667 1.000000
vt 0.166667 0.833333
vt 0.166667 0.166667
vt 0.166667 0.000000
vt 0.166667 0.333333
vt 0.166667 0.500000
vt 0.166667 0.666667
vt 0.250000 1.000000
vt 0.250000 0.833333
vt 0.250000 0.166667
vt 0.250000 0.000000
vt 0.250000 0.333333
vt 0.250000 0.500000
vt 0.250000 0.666667
vt 0.333333 1.000000
vt 0.333333 0.833333
vt 0.333333 0.166667
vt 0.333333 0.000000
vt 0.333333 0.333333
vt 0.333333 0.500000
vt 0.333333 0.666667
vt 0.416667 1.000000
vt 0.416667 0.833333
vt 0.416667 0.166667
vt 0.416667 0.000000
vt 0.416667 0.333333
vt 0.416667 0.500000
vt 0.416667 0.666667
vt 0.500000 1.000000
vt 0.500000 0.833333
vt 0.500000 0.166667
vt 0.500000 0.000000
vt 0.500000 0.333333
vt 0.500000 0.500000
vt 0.500000 0.666667
vt 0.583333 1.000000
vt 0.583333 0.833333
vt 0.583333 0.166667
vt 0.583333 0.000000
vt 0.583333 0.333333
vt 0.583333 0.500000
vt 0.583333 0.666667
vt 0.666667 1.000000
vt 0.666667 0.833333
vt 0.666667 0.166667
vt 0.666667 0.000000
vt 0.666667 0.333333
vt 0.666667 0.500000
vt 0.666667 0.666667
vt 0.750000 1.000000
vt 0.750000 0.833333
vt 0.750000 0.166667
vt 0.750000 0.000000
vt 0.750000 0.333333
vt 0.750000 0.500000
vt 0.750000 0.666667
vt 0.833333 1.000000
vt 0.833333 0.833333
vt 0.833333 0.166667
vt 0.833333 0.000000
vt 0.833333 0.333333
vt 0.833333 0.500000
vt 0.833333 0.666667
vt 0.916667 1.000000
vt 0.916667 0.833333
vt 0.916667 0.166667
vt 0.916667 0.000000
vt 0.916667 0.333333
vt 0.916667 0.500000
vt 0.916667 0.666667
vt 1.000000 1.000000
vt 1.000000 0.833333
vt 1.000000 0.166667
vt 1.000000 0.000000
vt 1.000000 0.333333
vt 1.000000 0.500000
vt 1.000000 0.666667
vn 0.1442 0.5383 0.8303
vn 0.3941 0.3941 0.8303
vn 0.7071 0.7071 0.0000
vn 0.2588 0.9659 0.0000
vn -0.1119 -0.4177 0.9016
vn -0.3058 -0.3058 0.9016
vn -0.2588 -0.9659 0.0000
vn -0.7071 -0.7071 0.0000
vn -0.1119 -0.4177 -0.9016
vn -0.3058 -0.3058 -0.9016
vn 0.1442 0.5383 -0.8303
vn 0.3941 0.3941 -0.8303
vn 0.5383 0.1442 0.8303
vn 0.9659 0.2588 0.0000
vn -0.4177 -0.1119 0.9016
vn -0.9659 -0.2588 0.0000
vn -0.4177 -0.1119 -0.9016
vn 0.5383 0.1442 -0.8303
vn 0.5383 -0.1442 0.8303
vn 0.9659 -0.2588 0.0000
vn -0.4177 0.1119 0.9016
vn -0.9659 0.2588 0.0000
vn -0.4177 0.1119 -0.9016
vn 0.5383 -0.1442 -0.8303
vn 0.3941 -0.3941 0.8303
vn 0.7071 -0.7071 0.0000
vn -0.3058 0.3058 0.9016
vn -0.7071 0.7071 0.0000
vn -0.3058 0.3058 -0.9016
vn 0.3941 -0.3941 -0.8303
vn 0.1442 -0.5383 0.8303
vn 0.2588 -0.9659 0.0000
vn -0.1119 0.4177 0.9016
vn -0.2588 0.9659 0.0000
vn -0.1119 0.4177 -0.9016
vn 0.1442 -0.5383 -0.8303
vn -0.1442 -0.5383 0.8303
vn 0.1119 0.4177 0.9016
vn 0.1119 0.4177 -0.9016
vn -0.1442 -0.5383 -0.8303
vn -0.3941 -0.3941 0.8303
vn 0.3058 0.3058 0.9016
vn 0.3058 0.3058 -0.9016
vn -0.3941 -0.3941 -0.8303
vn -0.5383 -0.1442 0.8303
vn 0.4177 0.1119 0.9016
vn 0.4177 0.1119 -0.9016
vn -0.5383 -0.1442 -0.8303
vn -0.5383 0.1442 0.8303
vn 0.4177 -0.1119 0.9016
vn 0.4177 -0.1119 -0.9016
vn -0.5383 0.1442 -0.8303
vn -0.3941 0.3941 0.8303
vn 0.3058 -0.3058 0.9016
vn 0.3058 -0.3058 -0.9016
vn -0.3941 0.3941 -0.8303
vn -0.1442 0.5383 0.8303
vn 0.1119 -0.4177 0.9016
vn 0.1119 -0.4177 -0.9016
vn -0.1442 0.5383 -0.8303

f 626/715/621 632/716/622 637/717/623 631/718/624
f 627/719/625 633/720/626 632/721/622 626/722/621
f 628/723/627 634/724/628 633/720/626 627/719/625
f 629/725/629 635/726/630 634/724/628 628/723/627
f 630/727/631 636/728/632 635/726/630 629/725/629
f 631/718/624 637/717/623 636/728/632 630/727/631
f 632/716/622 638/729/633 643/730/634 637/717/623
f 633/720/626 639/731/635 638/732/633 632/721/622
f 634/724/628 640/733/636 639/731/635 633/720/626
f 635/726/630 641/734/637 640/733/636 634/724/628
f 636/728/632 642/735/638 641/734/637 635/726/630
f 637/717/623 643/730/634 642/735/638 636/728/632
f 638/729/633 644/736/639 649/737/640 643/730/634
f 639/731/635 645/738/641 644/739/639 638/732/633
f 640/733/636 646/740/642 645/738/641 639/731/635
f 641/734/637 647/741/643 646/740/642 640/733/636
f 642/735/638 648/742/644 647/741/643 641/734/637
f 643/730/634 649/737/640 648/742/644 642/735/638
f 644/736/639 650/743/645 655/744/646 649/737/640
f 645/738/641 651/745/647 650/746/645 644/739/639
f 646/740/642 652/747/648 651/745/647 645/738/641
f 647/741/643 653/748/649 652/747/648 646/740/642
f 648/742/644 654/749/650 653/748/649 647/741/643
f 649/737/640 655/744/646 654/749/650 648/742/644
f 650/743/645 656/750/651 661/751/652 655/744/646
f 651/745/647 657/752/653 656/753/651 650/746/645
f 652/747/648 658/754/654 657/752/653 651/745/647
f 653/748/649 659/755/655 658/754/654 652/747/648
f 654/749/650 660/756/656 659/755/655 653/748/649
f 655/744/646 661/751/652 660/756/656 654/749/650
f 656/750/651 662/757/657 667/758/627 661/751/652
f 657/752/653 663/759/658 662/760/657 656/753/651
f 658/754/654 664/761/624 663/759/658 657/752/653
f 659/755/655 665/762/659 664/761/624 658/754/654
f 660/756/656 666/763/660 665/762/659 659/755/655
f 661/751/652 667/758/627 666/763/660 660/756/656
f 662/757/657 668/764/661 673/765/628 667/758/627
f 663/759/658 669/766/662 668/767/661 662/760/657
f 664/761/624 670/768/623 669/766/662 663/759/658
f 665/762/659 671/769/663 670/768/623 664/761/624
f 666/763/660 672/770/664 671/769/663 665/762/659
f 667/758/627 673/765/628 672/770/664 666/763/660
f 668/764/661 674/771/665 679/772/636 673/765/628
f 669/766/662 675/773/666 674/774/665 668/767/661
f 670/768/623 676/775/634 675/773/666 669/766/662
f 671/769/663 677/776/667 676/775/634 670/768/623
f 672/770/664 678/777/668 677/776/667 671/769/663
f 673/765/628 679/772/636 678/777/668 672/770/664
f 674/771/665 680/778/669 685/779/642 679/772/636
f 675/773/666 681/780/670 680/781/669 674/774/665
f 676/775/634 682/782/640 681/780/670 675/773/666
f 677/776/667 683/783/671 682/782/640 676/775/634
f 678/777/668 684/784/672 683/783/671 677/776/667
f 679/772/636 685/779/642 684/784/672 678/777/668
f 680/778/669 686/785/673 691/786/648 685/779/642
f 681/780/670 687/787/674 686/788/673 680/781/669
f 682/782/640 688/789/646 687/787/674 681/780/670
f 683/783/671 689/790/675 688/789/646 682/782/640
f 684/784/672 690/791/676 689/790/675 683/783/671
f 685/779/642 691/786/648 690/791/676 684/784/672
f 686/785/673 692/792/677 697/793/654 691/786/648
f 687/787/674 693/794/678 692/795/677 686/788/673
f 688/789/646 694/796/652 693/794/678 687/787/674
f 689/790/675 695/797/679 694/796/652 688/789/646
f 690/791/676 696/798/680 695/797/679 689/790/675
f 691/786/648 697/793/654 696/798/680 690/791/676
f 692/792/677 626/799/621 631/800/624 697/793/654
f 693/794/678 627/801/625 626/802/621 692/795/677
f 694/796/652 628/803/627 627/801/625 693/794/678
f 695/797/679 629/804/629 628/803/627 694/796/652
f 696/798/680 630/805/631 629/804/629 695/797/679
f 697/793/654 631/800/624 630/805/631 696/798/680